<mxfile host="Electron" modified="2023-07-17T20:54:10.493Z" agent="Mozilla/5.0 (Windows NT 10.0; Win64; x64) AppleWebKit/537.36 (KHTML, like Gecko) draw.io/21.6.1 Chrome/112.0.5615.204 Electron/24.6.1 Safari/537.36" etag="kRK8sF8KiPKmrmIcbh_1" version="21.6.1" type="device">
  <diagram id="R2lEEEUBdFMjLlhIrx00" name="Page-1">
    <mxGraphModel dx="1969" dy="984" grid="1" gridSize="10" guides="1" tooltips="1" connect="1" arrows="1" fold="1" page="1" pageScale="1" pageWidth="980" pageHeight="1390" math="0" shadow="0" extFonts="Permanent Marker^https://fonts.googleapis.com/css?family=Permanent+Marker">
      <root>
        <mxCell id="0" />
        <mxCell id="1" parent="0" />
        <mxCell id="MmX11wm5HvuTR1FrTXqp-2" value="Equipos&lt;br&gt;Gobierno" style="shape=ext;margin=3;double=1;whiteSpace=wrap;html=1;align=center;" parent="1" vertex="1">
          <mxGeometry x="347.76" y="305.62" width="100" height="60" as="geometry" />
        </mxCell>
        <mxCell id="MmX11wm5HvuTR1FrTXqp-73" value="fechaConstitución" style="text;html=1;strokeColor=none;fillColor=none;align=left;verticalAlign=middle;whiteSpace=wrap;rounded=0;fontSize=9;" parent="1" vertex="1">
          <mxGeometry x="403.01" y="286.12" width="33" height="12.5" as="geometry" />
        </mxCell>
        <mxCell id="MmX11wm5HvuTR1FrTXqp-77" value="idJunta" style="text;html=1;strokeColor=none;fillColor=none;align=left;verticalAlign=middle;whiteSpace=wrap;rounded=0;fontSize=9;" parent="1" vertex="1">
          <mxGeometry x="363.79999999999995" y="270.5" width="16.36" height="9.38" as="geometry" />
        </mxCell>
        <mxCell id="MmX11wm5HvuTR1FrTXqp-79" value="" style="endArrow=none;html=1;rounded=0;fontSize=10;entryX=0.75;entryY=0;entryDx=0;entryDy=0;exitX=0.5;exitY=1;exitDx=0;exitDy=0;" parent="1" source="MmX11wm5HvuTR1FrTXqp-181" edge="1">
          <mxGeometry width="50" height="50" relative="1" as="geometry">
            <mxPoint x="408.76" y="253.37" as="sourcePoint" />
            <mxPoint x="393.76" y="305.62" as="targetPoint" />
          </mxGeometry>
        </mxCell>
        <mxCell id="MmX11wm5HvuTR1FrTXqp-80" value="" style="endArrow=none;html=1;rounded=0;fontSize=10;entryX=0.5;entryY=0;entryDx=0;entryDy=0;exitX=0.5;exitY=1;exitDx=0;exitDy=0;" parent="1" source="MmX11wm5HvuTR1FrTXqp-179" edge="1">
          <mxGeometry width="50" height="50" relative="1" as="geometry">
            <mxPoint x="397.16999999999996" y="241.5" as="sourcePoint" />
            <mxPoint x="357.16999999999996" y="306.5" as="targetPoint" />
          </mxGeometry>
        </mxCell>
        <mxCell id="MmX11wm5HvuTR1FrTXqp-179" value="" style="ellipse;whiteSpace=wrap;html=1;aspect=fixed;fillColor=#000000;strokeColor=#000000;fontColor=#000000;" parent="1" vertex="1">
          <mxGeometry x="351.79999999999995" y="268.5" width="11" height="11" as="geometry" />
        </mxCell>
        <mxCell id="MmX11wm5HvuTR1FrTXqp-181" value="" style="ellipse;whiteSpace=wrap;html=1;aspect=fixed;fillColor=#FFFFFF;strokeColor=#000000;fontColor=#000000;" parent="1" vertex="1">
          <mxGeometry x="388.01" y="287.12" width="11" height="11" as="geometry" />
        </mxCell>
        <mxCell id="MmX11wm5HvuTR1FrTXqp-202" value="Juntas" style="shape=ext;margin=3;double=1;whiteSpace=wrap;html=1;align=center;" parent="1" vertex="1">
          <mxGeometry x="1122.01" y="318" width="100" height="60" as="geometry" />
        </mxCell>
        <mxCell id="MmX11wm5HvuTR1FrTXqp-203" value="&amp;nbsp; &amp;nbsp;Eg-Ju" style="shape=rhombus;perimeter=rhombusPerimeter;whiteSpace=wrap;html=1;align=left;fontStyle=1;fontSize=10;" parent="1" vertex="1">
          <mxGeometry x="832.51" y="305.12" width="60" height="60" as="geometry" />
        </mxCell>
        <mxCell id="MmX11wm5HvuTR1FrTXqp-204" value="" style="endArrow=classic;html=1;rounded=0;exitX=1;exitY=0.5;exitDx=0;exitDy=0;entryX=0;entryY=0.25;entryDx=0;entryDy=0;" parent="1" source="MmX11wm5HvuTR1FrTXqp-203" target="MmX11wm5HvuTR1FrTXqp-202" edge="1">
          <mxGeometry width="50" height="50" relative="1" as="geometry">
            <mxPoint x="853.26" y="371.12" as="sourcePoint" />
            <mxPoint x="260.76" y="515.87" as="targetPoint" />
          </mxGeometry>
        </mxCell>
        <mxCell id="MmX11wm5HvuTR1FrTXqp-205" value="1:1" style="text;html=1;strokeColor=none;fillColor=none;align=center;verticalAlign=middle;whiteSpace=wrap;rounded=0;fontSize=15;fontStyle=1" parent="1" vertex="1">
          <mxGeometry x="852.3" y="283.24" width="22.43" height="20" as="geometry" />
        </mxCell>
        <mxCell id="MmX11wm5HvuTR1FrTXqp-206" value="(1,1)" style="text;html=1;strokeColor=none;fillColor=none;align=left;verticalAlign=middle;whiteSpace=wrap;rounded=0;fontSize=9;" parent="1" vertex="1">
          <mxGeometry x="1085.37" y="315.37" width="25.5" height="12.5" as="geometry" />
        </mxCell>
        <mxCell id="MmX11wm5HvuTR1FrTXqp-207" value="coordina" style="text;html=1;strokeColor=none;fillColor=none;align=left;verticalAlign=middle;whiteSpace=wrap;rounded=0;fontSize=9;" parent="1" vertex="1">
          <mxGeometry x="1077.76" y="335.5" width="55" height="12.5" as="geometry" />
        </mxCell>
        <mxCell id="MmX11wm5HvuTR1FrTXqp-221" style="edgeStyle=orthogonalEdgeStyle;rounded=0;orthogonalLoop=1;jettySize=auto;html=1;exitX=0;exitY=0.5;exitDx=0;exitDy=0;" parent="1" source="MmX11wm5HvuTR1FrTXqp-203" target="MmX11wm5HvuTR1FrTXqp-2" edge="1">
          <mxGeometry relative="1" as="geometry" />
        </mxCell>
        <mxCell id="MmX11wm5HvuTR1FrTXqp-208" value="ID" style="text;html=1;strokeColor=none;fillColor=none;align=center;verticalAlign=middle;whiteSpace=wrap;rounded=0;fontSize=8;fontStyle=1" parent="1" vertex="1">
          <mxGeometry x="877.05" y="325.24" width="12.43" height="20" as="geometry" />
        </mxCell>
        <mxCell id="MmX11wm5HvuTR1FrTXqp-209" value="" style="endArrow=none;html=1;rounded=0;exitX=0;exitY=0;exitDx=0;exitDy=0;entryX=0;entryY=1;entryDx=0;entryDy=0;" parent="1" edge="1">
          <mxGeometry width="50" height="50" relative="1" as="geometry">
            <mxPoint x="877.51" y="320.12" as="sourcePoint" />
            <mxPoint x="877.51" y="350.12000000000023" as="targetPoint" />
          </mxGeometry>
        </mxCell>
        <mxCell id="MmX11wm5HvuTR1FrTXqp-210" value="fechaConstitución" style="text;html=1;strokeColor=none;fillColor=none;align=left;verticalAlign=middle;whiteSpace=wrap;rounded=0;fontSize=9;" parent="1" vertex="1">
          <mxGeometry x="1206.26" y="298.5" width="33" height="12.5" as="geometry" />
        </mxCell>
        <mxCell id="MmX11wm5HvuTR1FrTXqp-211" value="idCentro" style="text;html=1;strokeColor=none;fillColor=none;align=left;verticalAlign=middle;whiteSpace=wrap;rounded=0;fontSize=9;" parent="1" vertex="1">
          <mxGeometry x="1180.76" y="283.24" width="75" height="12.5" as="geometry" />
        </mxCell>
        <mxCell id="MmX11wm5HvuTR1FrTXqp-212" value="id" style="text;html=1;strokeColor=none;fillColor=none;align=left;verticalAlign=middle;whiteSpace=wrap;rounded=0;fontSize=9;" parent="1" vertex="1">
          <mxGeometry x="1155.38" y="267.88" width="73" height="9.38" as="geometry" />
        </mxCell>
        <mxCell id="MmX11wm5HvuTR1FrTXqp-213" value="" style="endArrow=none;html=1;rounded=0;fontSize=10;entryX=0.75;entryY=0;entryDx=0;entryDy=0;exitX=0.5;exitY=1;exitDx=0;exitDy=0;" parent="1" source="MmX11wm5HvuTR1FrTXqp-217" target="MmX11wm5HvuTR1FrTXqp-202" edge="1">
          <mxGeometry width="50" height="50" relative="1" as="geometry">
            <mxPoint x="1212.01" y="265.75" as="sourcePoint" />
            <mxPoint x="1122.01" y="378" as="targetPoint" />
          </mxGeometry>
        </mxCell>
        <mxCell id="MmX11wm5HvuTR1FrTXqp-214" value="" style="endArrow=none;html=1;rounded=0;fontSize=10;entryX=0.5;entryY=0;entryDx=0;entryDy=0;exitX=0.5;exitY=1;exitDx=0;exitDy=0;" parent="1" source="MmX11wm5HvuTR1FrTXqp-216" target="MmX11wm5HvuTR1FrTXqp-202" edge="1">
          <mxGeometry width="50" height="50" relative="1" as="geometry">
            <mxPoint x="1212.01" y="253" as="sourcePoint" />
            <mxPoint x="1122.01" y="328" as="targetPoint" />
          </mxGeometry>
        </mxCell>
        <mxCell id="MmX11wm5HvuTR1FrTXqp-215" value="" style="endArrow=none;html=1;rounded=0;fontSize=10;entryX=0.25;entryY=0;entryDx=0;entryDy=0;exitX=0.5;exitY=1;exitDx=0;exitDy=0;startArrow=none;" parent="1" source="MmX11wm5HvuTR1FrTXqp-218" target="MmX11wm5HvuTR1FrTXqp-202" edge="1">
          <mxGeometry width="50" height="50" relative="1" as="geometry">
            <mxPoint x="1212.01" y="241.25" as="sourcePoint" />
            <mxPoint x="1122.01" y="328" as="targetPoint" />
          </mxGeometry>
        </mxCell>
        <mxCell id="MmX11wm5HvuTR1FrTXqp-216" value="" style="ellipse;whiteSpace=wrap;html=1;aspect=fixed;fillColor=#CCCCCC;strokeColor=#000000;fontColor=#000000;" parent="1" vertex="1">
          <mxGeometry x="1166.64" y="284" width="11" height="11" as="geometry" />
        </mxCell>
        <mxCell id="MmX11wm5HvuTR1FrTXqp-217" value="" style="ellipse;whiteSpace=wrap;html=1;aspect=fixed;fillColor=#FFFFFF;strokeColor=#000000;fontColor=#000000;" parent="1" vertex="1">
          <mxGeometry x="1191.26" y="299.5" width="11" height="11" as="geometry" />
        </mxCell>
        <mxCell id="MmX11wm5HvuTR1FrTXqp-218" value="" style="ellipse;whiteSpace=wrap;html=1;aspect=fixed;fillColor=#000000;strokeColor=#000000;fontColor=#000000;" parent="1" vertex="1">
          <mxGeometry x="1142.26" y="268.12" width="11" height="11" as="geometry" />
        </mxCell>
        <mxCell id="MmX11wm5HvuTR1FrTXqp-222" value="(1,1)" style="text;html=1;strokeColor=none;fillColor=none;align=left;verticalAlign=middle;whiteSpace=wrap;rounded=0;fontSize=9;" parent="1" vertex="1">
          <mxGeometry x="451.14" y="315.37" width="25.5" height="12.5" as="geometry" />
        </mxCell>
        <mxCell id="MmX11wm5HvuTR1FrTXqp-224" value="esRepresentada" style="text;html=1;strokeColor=none;fillColor=none;align=left;verticalAlign=middle;whiteSpace=wrap;rounded=0;fontSize=9;" parent="1" vertex="1">
          <mxGeometry x="451.14" y="340.62" width="55" height="12.5" as="geometry" />
        </mxCell>
        <mxCell id="MmX11wm5HvuTR1FrTXqp-235" value="Comisiones" style="shape=ext;margin=3;double=1;whiteSpace=wrap;html=1;align=center;" parent="1" vertex="1">
          <mxGeometry x="1120.6399999999999" y="532.38" width="100" height="60" as="geometry" />
        </mxCell>
        <mxCell id="MmX11wm5HvuTR1FrTXqp-239" value="nombre" style="text;html=1;strokeColor=none;fillColor=none;align=left;verticalAlign=middle;whiteSpace=wrap;rounded=0;fontSize=9;" parent="1" vertex="1">
          <mxGeometry x="1245.8899999999999" y="563.88" width="65" height="10" as="geometry" />
        </mxCell>
        <mxCell id="MmX11wm5HvuTR1FrTXqp-241" value="id" style="text;html=1;strokeColor=none;fillColor=none;align=left;verticalAlign=middle;whiteSpace=wrap;rounded=0;fontSize=9;" parent="1" vertex="1">
          <mxGeometry x="1245.8899999999999" y="534" width="73" height="9.38" as="geometry" />
        </mxCell>
        <mxCell id="MmX11wm5HvuTR1FrTXqp-242" value="" style="endArrow=none;html=1;rounded=0;fontSize=10;exitX=0;exitY=0.5;exitDx=0;exitDy=0;entryX=1;entryY=0.5;entryDx=0;entryDy=0;" parent="1" source="MmX11wm5HvuTR1FrTXqp-254" edge="1">
          <mxGeometry width="50" height="50" relative="1" as="geometry">
            <mxPoint x="1210.6399999999999" y="496.13" as="sourcePoint" />
            <mxPoint x="1220.6399999999999" y="554.38" as="targetPoint" />
          </mxGeometry>
        </mxCell>
        <mxCell id="MmX11wm5HvuTR1FrTXqp-244" value="" style="endArrow=none;html=1;rounded=0;fontSize=10;entryX=1;entryY=0.25;entryDx=0;entryDy=0;exitX=0;exitY=0.5;exitDx=0;exitDy=0;" parent="1" source="MmX11wm5HvuTR1FrTXqp-250" edge="1">
          <mxGeometry width="50" height="50" relative="1" as="geometry">
            <mxPoint x="1210.6399999999999" y="459.38" as="sourcePoint" />
            <mxPoint x="1220.6399999999999" y="539.38" as="targetPoint" />
          </mxGeometry>
        </mxCell>
        <mxCell id="MmX11wm5HvuTR1FrTXqp-247" value="descripción" style="text;html=1;strokeColor=none;fillColor=none;align=left;verticalAlign=middle;whiteSpace=wrap;rounded=0;fontSize=9;" parent="1" vertex="1">
          <mxGeometry x="1245.8899999999999" y="575.88" width="65" height="12.5" as="geometry" />
        </mxCell>
        <mxCell id="MmX11wm5HvuTR1FrTXqp-248" value="" style="endArrow=none;html=1;rounded=0;entryX=0;entryY=0.5;entryDx=0;entryDy=0;exitX=1;exitY=0.75;exitDx=0;exitDy=0;" parent="1" target="MmX11wm5HvuTR1FrTXqp-253" edge="1">
          <mxGeometry width="50" height="50" relative="1" as="geometry">
            <mxPoint x="1220.6399999999999" y="569.38" as="sourcePoint" />
            <mxPoint x="1210.6399999999999" y="508.63" as="targetPoint" />
          </mxGeometry>
        </mxCell>
        <mxCell id="MmX11wm5HvuTR1FrTXqp-250" value="" style="ellipse;whiteSpace=wrap;html=1;aspect=fixed;fillColor=#000000;strokeColor=#000000;fontColor=#000000;" parent="1" vertex="1">
          <mxGeometry x="1231.6299999999999" y="534" width="11" height="11" as="geometry" />
        </mxCell>
        <mxCell id="MmX11wm5HvuTR1FrTXqp-253" value="" style="ellipse;whiteSpace=wrap;html=1;aspect=fixed;fillColor=#FFFFFF;strokeColor=#000000;fontColor=#000000;" parent="1" vertex="1">
          <mxGeometry x="1230.8899999999999" y="563.88" width="11" height="11" as="geometry" />
        </mxCell>
        <mxCell id="MmX11wm5HvuTR1FrTXqp-254" value="" style="ellipse;whiteSpace=wrap;html=1;aspect=fixed;fillColor=#CCCCCC;strokeColor=#000000;fontColor=#000000;" parent="1" vertex="1">
          <mxGeometry x="1230.8899999999999" y="549" width="11" height="11" as="geometry" />
        </mxCell>
        <mxCell id="MmX11wm5HvuTR1FrTXqp-260" value="" style="endArrow=none;html=1;rounded=0;entryX=0;entryY=0.5;entryDx=0;entryDy=0;exitX=0.994;exitY=0.84;exitDx=0;exitDy=0;exitPerimeter=0;" parent="1" source="MmX11wm5HvuTR1FrTXqp-235" target="MmX11wm5HvuTR1FrTXqp-261" edge="1">
          <mxGeometry width="50" height="50" relative="1" as="geometry">
            <mxPoint x="1220.6399999999999" y="583.88" as="sourcePoint" />
            <mxPoint x="1210.6399999999999" y="523.13" as="targetPoint" />
          </mxGeometry>
        </mxCell>
        <mxCell id="MmX11wm5HvuTR1FrTXqp-261" value="" style="ellipse;whiteSpace=wrap;html=1;aspect=fixed;fillColor=#FFFFFF;strokeColor=#000000;fontColor=#000000;" parent="1" vertex="1">
          <mxGeometry x="1230.8899999999999" y="577.38" width="11" height="11" as="geometry" />
        </mxCell>
        <mxCell id="MmX11wm5HvuTR1FrTXqp-262" value="fechaConstitución" style="text;html=1;strokeColor=none;fillColor=none;align=left;verticalAlign=middle;whiteSpace=wrap;rounded=0;fontSize=9;" parent="1" vertex="1">
          <mxGeometry x="1245.89" y="594" width="65" height="12.5" as="geometry" />
        </mxCell>
        <mxCell id="MmX11wm5HvuTR1FrTXqp-267" value="" style="edgeStyle=orthogonalEdgeStyle;rounded=0;orthogonalLoop=1;jettySize=auto;html=1;" parent="1" source="MmX11wm5HvuTR1FrTXqp-263" target="MmX11wm5HvuTR1FrTXqp-202" edge="1">
          <mxGeometry relative="1" as="geometry" />
        </mxCell>
        <mxCell id="MmX11wm5HvuTR1FrTXqp-272" value="" style="edgeStyle=orthogonalEdgeStyle;rounded=0;orthogonalLoop=1;jettySize=auto;html=1;" parent="1" source="MmX11wm5HvuTR1FrTXqp-263" target="MmX11wm5HvuTR1FrTXqp-235" edge="1">
          <mxGeometry relative="1" as="geometry" />
        </mxCell>
        <mxCell id="MmX11wm5HvuTR1FrTXqp-263" value="Ju-Co" style="shape=rhombus;perimeter=rhombusPerimeter;whiteSpace=wrap;html=1;align=center;fontStyle=1;fontSize=10;" parent="1" vertex="1">
          <mxGeometry x="1141.26" y="420" width="60" height="60" as="geometry" />
        </mxCell>
        <mxCell id="MmX11wm5HvuTR1FrTXqp-264" value="1:N" style="text;html=1;strokeColor=none;fillColor=none;align=center;verticalAlign=middle;whiteSpace=wrap;rounded=0;fontSize=15;fontStyle=1;direction=east;flipV=0;flipH=0;rotation=90;" parent="1" vertex="1">
          <mxGeometry x="1202.14" y="442.12" width="22.5" height="15.75" as="geometry" />
        </mxCell>
        <mxCell id="MmX11wm5HvuTR1FrTXqp-265" value="" style="endArrow=none;html=1;rounded=0;fontColor=#000000;strokeColor=#000000;exitX=1;exitY=1;exitDx=0;exitDy=0;entryX=0;entryY=1;entryDx=0;entryDy=0;" parent="1" edge="1">
          <mxGeometry width="50" height="50" relative="1" as="geometry">
            <mxPoint x="1186.26" y="435" as="sourcePoint" />
            <mxPoint x="1156.26" y="435" as="targetPoint" />
          </mxGeometry>
        </mxCell>
        <mxCell id="MmX11wm5HvuTR1FrTXqp-266" value="EX" style="text;html=1;strokeColor=none;fillColor=none;align=center;verticalAlign=middle;whiteSpace=wrap;rounded=0;fontSize=8;fontStyle=1" parent="1" vertex="1">
          <mxGeometry x="1165.64" y="423.5" width="11.25" height="12" as="geometry" />
        </mxCell>
        <mxCell id="MmX11wm5HvuTR1FrTXqp-273" value="gestiona" style="text;html=1;strokeColor=none;fillColor=none;align=left;verticalAlign=middle;whiteSpace=wrap;rounded=0;fontSize=9;" parent="1" vertex="1">
          <mxGeometry x="1176.26" y="381" width="55" height="12.5" as="geometry" />
        </mxCell>
        <mxCell id="MmX11wm5HvuTR1FrTXqp-274" value="esGestionada" style="text;html=1;strokeColor=none;fillColor=none;align=left;verticalAlign=middle;whiteSpace=wrap;rounded=0;fontSize=9;" parent="1" vertex="1">
          <mxGeometry x="1182.6299999999999" y="515" width="55" height="12.5" as="geometry" />
        </mxCell>
        <mxCell id="MmX11wm5HvuTR1FrTXqp-275" value="" style="endArrow=none;html=1;rounded=0;entryX=0;entryY=0;entryDx=0;entryDy=0;exitX=1;exitY=1;exitDx=0;exitDy=0;" parent="1" source="MmX11wm5HvuTR1FrTXqp-235" target="MmX11wm5HvuTR1FrTXqp-276" edge="1">
          <mxGeometry width="50" height="50" relative="1" as="geometry">
            <mxPoint x="1209.34" y="592.2600000000001" as="sourcePoint" />
            <mxPoint x="1209.55" y="603" as="targetPoint" />
          </mxGeometry>
        </mxCell>
        <mxCell id="MmX11wm5HvuTR1FrTXqp-276" value="" style="ellipse;whiteSpace=wrap;html=1;aspect=fixed;fillColor=#FFFFFF;strokeColor=#000000;fontColor=#000000;" parent="1" vertex="1">
          <mxGeometry x="1230.8899999999999" y="593.88" width="11" height="11" as="geometry" />
        </mxCell>
        <mxCell id="MmX11wm5HvuTR1FrTXqp-277" value="idJunta" style="text;html=1;strokeColor=none;fillColor=none;align=left;verticalAlign=middle;whiteSpace=wrap;rounded=0;fontSize=9;" parent="1" vertex="1">
          <mxGeometry x="1245.8899999999999" y="547.5" width="65" height="12.5" as="geometry" />
        </mxCell>
        <mxCell id="MmX11wm5HvuTR1FrTXqp-278" value="Reuniones" style="shape=ext;margin=3;double=1;whiteSpace=wrap;html=1;align=center;" parent="1" vertex="1">
          <mxGeometry x="1426.64" y="1019.5099999999998" width="100" height="60" as="geometry" />
        </mxCell>
        <mxCell id="MmX11wm5HvuTR1FrTXqp-279" value="pdf" style="text;html=1;strokeColor=none;fillColor=none;align=left;verticalAlign=middle;whiteSpace=wrap;rounded=0;fontSize=9;" parent="1" vertex="1">
          <mxGeometry x="1551.89" y="1034.5099999999998" width="65" height="10" as="geometry" />
        </mxCell>
        <mxCell id="MmX11wm5HvuTR1FrTXqp-280" value="id" style="text;html=1;strokeColor=none;fillColor=none;align=left;verticalAlign=middle;whiteSpace=wrap;rounded=0;fontSize=9;" parent="1" vertex="1">
          <mxGeometry x="1551.89" y="1019.1300000000001" width="73" height="9.38" as="geometry" />
        </mxCell>
        <mxCell id="MmX11wm5HvuTR1FrTXqp-281" value="" style="endArrow=none;html=1;rounded=0;fontSize=10;exitX=0;exitY=0.5;exitDx=0;exitDy=0;entryX=1;entryY=0.5;entryDx=0;entryDy=0;" parent="1" source="MmX11wm5HvuTR1FrTXqp-287" edge="1">
          <mxGeometry width="50" height="50" relative="1" as="geometry">
            <mxPoint x="1516.64" y="983.2599999999998" as="sourcePoint" />
            <mxPoint x="1526.64" y="1041.5100000000002" as="targetPoint" />
          </mxGeometry>
        </mxCell>
        <mxCell id="MmX11wm5HvuTR1FrTXqp-282" value="" style="endArrow=none;html=1;rounded=0;fontSize=10;entryX=1;entryY=0.25;entryDx=0;entryDy=0;exitX=0;exitY=0.5;exitDx=0;exitDy=0;" parent="1" source="MmX11wm5HvuTR1FrTXqp-285" edge="1">
          <mxGeometry width="50" height="50" relative="1" as="geometry">
            <mxPoint x="1516.64" y="946.5099999999999" as="sourcePoint" />
            <mxPoint x="1526.64" y="1026.5100000000002" as="targetPoint" />
          </mxGeometry>
        </mxCell>
        <mxCell id="MmX11wm5HvuTR1FrTXqp-283" value="fecha" style="text;html=1;strokeColor=none;fillColor=none;align=left;verticalAlign=middle;whiteSpace=wrap;rounded=0;fontSize=9;" parent="1" vertex="1">
          <mxGeometry x="1551.89" y="1048.2599999999998" width="65" height="12.5" as="geometry" />
        </mxCell>
        <mxCell id="MmX11wm5HvuTR1FrTXqp-284" value="" style="endArrow=none;html=1;rounded=0;entryX=0;entryY=0.5;entryDx=0;entryDy=0;exitX=1;exitY=0.75;exitDx=0;exitDy=0;" parent="1" target="MmX11wm5HvuTR1FrTXqp-286" edge="1">
          <mxGeometry width="50" height="50" relative="1" as="geometry">
            <mxPoint x="1526.64" y="1056.5100000000002" as="sourcePoint" />
            <mxPoint x="1516.64" y="995.7599999999998" as="targetPoint" />
          </mxGeometry>
        </mxCell>
        <mxCell id="MmX11wm5HvuTR1FrTXqp-285" value="" style="ellipse;whiteSpace=wrap;html=1;aspect=fixed;fillColor=#000000;strokeColor=#000000;fontColor=#000000;" parent="1" vertex="1">
          <mxGeometry x="1537.6299999999999" y="1021.1300000000001" width="11" height="11" as="geometry" />
        </mxCell>
        <mxCell id="MmX11wm5HvuTR1FrTXqp-286" value="" style="ellipse;whiteSpace=wrap;html=1;aspect=fixed;fillColor=#FFFFFF;strokeColor=#000000;fontColor=#000000;" parent="1" vertex="1">
          <mxGeometry x="1536.89" y="1051.0099999999998" width="11" height="11" as="geometry" />
        </mxCell>
        <mxCell id="MmX11wm5HvuTR1FrTXqp-287" value="" style="ellipse;whiteSpace=wrap;html=1;aspect=fixed;fillColor=#FFFFFF;strokeColor=#000000;fontColor=#000000;" parent="1" vertex="1">
          <mxGeometry x="1536.89" y="1036.13" width="11" height="11" as="geometry" />
        </mxCell>
        <mxCell id="MmX11wm5HvuTR1FrTXqp-288" value="" style="endArrow=none;html=1;rounded=0;entryX=0;entryY=0.5;entryDx=0;entryDy=0;exitX=0.994;exitY=0.84;exitDx=0;exitDy=0;exitPerimeter=0;" parent="1" source="MmX11wm5HvuTR1FrTXqp-278" target="MmX11wm5HvuTR1FrTXqp-289" edge="1">
          <mxGeometry width="50" height="50" relative="1" as="geometry">
            <mxPoint x="1526.64" y="1071.0099999999998" as="sourcePoint" />
            <mxPoint x="1516.64" y="1010.2599999999998" as="targetPoint" />
          </mxGeometry>
        </mxCell>
        <mxCell id="MmX11wm5HvuTR1FrTXqp-289" value="" style="ellipse;whiteSpace=wrap;html=1;aspect=fixed;fillColor=#FFFFFF;strokeColor=#000000;fontColor=#000000;" parent="1" vertex="1">
          <mxGeometry x="1536.89" y="1064.5099999999998" width="11" height="11" as="geometry" />
        </mxCell>
        <mxCell id="MmX11wm5HvuTR1FrTXqp-290" value="hora" style="text;html=1;strokeColor=none;fillColor=none;align=left;verticalAlign=middle;whiteSpace=wrap;rounded=0;fontSize=9;" parent="1" vertex="1">
          <mxGeometry x="1552.26" y="1061.0099999999998" width="65" height="12.5" as="geometry" />
        </mxCell>
        <mxCell id="0EHpkeUix3jVTKtLxYQo-2" style="edgeStyle=orthogonalEdgeStyle;rounded=0;orthogonalLoop=1;jettySize=auto;html=1;exitX=0.5;exitY=1;exitDx=0;exitDy=0;entryX=0.5;entryY=0;entryDx=0;entryDy=0;" parent="1" source="MmX11wm5HvuTR1FrTXqp-292" target="MmX11wm5HvuTR1FrTXqp-278" edge="1">
          <mxGeometry relative="1" as="geometry" />
        </mxCell>
        <mxCell id="MmX11wm5HvuTR1FrTXqp-292" value="Co-Re" style="shape=rhombus;perimeter=rhombusPerimeter;whiteSpace=wrap;html=1;align=center;fontStyle=1;fontSize=10;" parent="1" vertex="1">
          <mxGeometry x="1446.6299999999999" y="782.1200000000001" width="60" height="60" as="geometry" />
        </mxCell>
        <mxCell id="MmX11wm5HvuTR1FrTXqp-293" value="1:N" style="text;html=1;strokeColor=none;fillColor=none;align=center;verticalAlign=middle;whiteSpace=wrap;rounded=0;fontSize=15;fontStyle=1;rotation=90;" parent="1" vertex="1">
          <mxGeometry x="1506.6299999999999" y="802.3700000000001" width="22.5" height="15.75" as="geometry" />
        </mxCell>
        <mxCell id="MmX11wm5HvuTR1FrTXqp-294" value="" style="endArrow=none;html=1;rounded=0;fontColor=#000000;strokeColor=#000000;exitX=1;exitY=1;exitDx=0;exitDy=0;entryX=0;entryY=1;entryDx=0;entryDy=0;" parent="1" edge="1">
          <mxGeometry width="50" height="50" relative="1" as="geometry">
            <mxPoint x="1491.6299999999999" y="797.1200000000001" as="sourcePoint" />
            <mxPoint x="1461.6299999999999" y="797.1200000000001" as="targetPoint" />
          </mxGeometry>
        </mxCell>
        <mxCell id="MmX11wm5HvuTR1FrTXqp-300" value="" style="edgeStyle=orthogonalEdgeStyle;rounded=0;orthogonalLoop=1;jettySize=auto;html=1;entryX=0.5;entryY=1;entryDx=0;entryDy=0;" parent="1" source="MmX11wm5HvuTR1FrTXqp-295" target="MmX11wm5HvuTR1FrTXqp-235" edge="1">
          <mxGeometry relative="1" as="geometry">
            <Array as="points">
              <mxPoint x="1477" y="650" />
              <mxPoint x="1171" y="650" />
            </Array>
          </mxGeometry>
        </mxCell>
        <mxCell id="MmX11wm5HvuTR1FrTXqp-295" value="E" style="text;html=1;strokeColor=none;fillColor=none;align=center;verticalAlign=middle;whiteSpace=wrap;rounded=0;fontSize=8;fontStyle=1" parent="1" vertex="1">
          <mxGeometry x="1471.01" y="785.6200000000001" width="11.25" height="12" as="geometry" />
        </mxCell>
        <mxCell id="MmX11wm5HvuTR1FrTXqp-296" value="genera" style="text;html=1;strokeColor=none;fillColor=none;align=left;verticalAlign=middle;whiteSpace=wrap;rounded=0;fontSize=9;" parent="1" vertex="1">
          <mxGeometry x="1435.76" y="1002.1300000000001" width="55" height="12.5" as="geometry" />
        </mxCell>
        <mxCell id="MmX11wm5HvuTR1FrTXqp-297" value="" style="endArrow=none;html=1;rounded=0;entryX=0.5;entryY=0;entryDx=0;entryDy=0;exitX=0.797;exitY=0.998;exitDx=0;exitDy=0;exitPerimeter=0;" parent="1" edge="1">
          <mxGeometry width="50" height="50" relative="1" as="geometry">
            <mxPoint x="1497.34" y="1079.3900000000003" as="sourcePoint" />
            <mxPoint x="1497.55" y="1090.13" as="targetPoint" />
          </mxGeometry>
        </mxCell>
        <mxCell id="MmX11wm5HvuTR1FrTXqp-298" value="" style="ellipse;whiteSpace=wrap;html=1;aspect=fixed;fillColor=#CCCCCC;strokeColor=#000000;fontColor=#000000;" parent="1" vertex="1">
          <mxGeometry x="1492.05" y="1090.13" width="11" height="11" as="geometry" />
        </mxCell>
        <mxCell id="MmX11wm5HvuTR1FrTXqp-299" value="idCom" style="text;html=1;strokeColor=none;fillColor=none;align=left;verticalAlign=middle;whiteSpace=wrap;rounded=0;fontSize=9;" parent="1" vertex="1">
          <mxGeometry x="1486.26" y="1101.13" width="30.25" height="12.5" as="geometry" />
        </mxCell>
        <mxCell id="MmX11wm5HvuTR1FrTXqp-301" value="esGenerada" style="text;html=1;strokeColor=none;fillColor=none;align=left;verticalAlign=middle;whiteSpace=wrap;rounded=0;fontSize=9;" parent="1" vertex="1">
          <mxGeometry x="1109.8799999999999" y="594" width="55" height="12.5" as="geometry" />
        </mxCell>
        <mxCell id="MmX11wm5HvuTR1FrTXqp-302" value="(1,1)" style="text;html=1;strokeColor=none;fillColor=none;align=left;verticalAlign=middle;whiteSpace=wrap;rounded=0;fontSize=9;" parent="1" vertex="1">
          <mxGeometry x="1137.76" y="381" width="25.5" height="12.5" as="geometry" />
        </mxCell>
        <mxCell id="MmX11wm5HvuTR1FrTXqp-303" value="(0,N)" style="text;html=1;strokeColor=none;fillColor=none;align=left;verticalAlign=middle;whiteSpace=wrap;rounded=0;fontSize=9;" parent="1" vertex="1">
          <mxGeometry x="1136.1299999999999" y="515" width="25.5" height="12.5" as="geometry" />
        </mxCell>
        <mxCell id="MmX11wm5HvuTR1FrTXqp-304" value="(1,1)" style="text;html=1;strokeColor=none;fillColor=none;align=left;verticalAlign=middle;whiteSpace=wrap;rounded=0;fontSize=9;" parent="1" vertex="1">
          <mxGeometry x="1179.1299999999999" y="592.38" width="25.5" height="12.5" as="geometry" />
        </mxCell>
        <mxCell id="MmX11wm5HvuTR1FrTXqp-305" value="(0,N)" style="text;html=1;strokeColor=none;fillColor=none;align=left;verticalAlign=middle;whiteSpace=wrap;rounded=0;fontSize=9;" parent="1" vertex="1">
          <mxGeometry x="1486.01" y="1002.1300000000001" width="25.5" height="12.5" as="geometry" />
        </mxCell>
        <mxCell id="MmX11wm5HvuTR1FrTXqp-306" style="edgeStyle=none;rounded=0;orthogonalLoop=1;jettySize=auto;html=1;exitX=0.5;exitY=0;exitDx=0;exitDy=0;endArrow=none;endFill=0;entryX=0.75;entryY=1;entryDx=0;entryDy=0;" parent="1" source="MmX11wm5HvuTR1FrTXqp-307" edge="1">
          <mxGeometry relative="1" as="geometry">
            <mxPoint x="1469.01" y="1079.5099999999998" as="targetPoint" />
          </mxGeometry>
        </mxCell>
        <mxCell id="MmX11wm5HvuTR1FrTXqp-307" value="" style="ellipse;whiteSpace=wrap;html=1;aspect=fixed;fillColor=#FFFFFF;strokeColor=#000000;fontColor=#000000;" parent="1" vertex="1">
          <mxGeometry x="1463.51" y="1090.0099999999998" width="11" height="11" as="geometry" />
        </mxCell>
        <mxCell id="MmX11wm5HvuTR1FrTXqp-308" value="estado" style="text;html=1;strokeColor=none;fillColor=none;align=left;verticalAlign=middle;whiteSpace=wrap;rounded=0;fontSize=9;" parent="1" vertex="1">
          <mxGeometry x="1457.26" y="1103.13" width="22.74" height="8.75" as="geometry" />
        </mxCell>
        <mxCell id="MmX11wm5HvuTR1FrTXqp-315" value="Jun-Re" style="shape=rhombus;perimeter=rhombusPerimeter;whiteSpace=wrap;html=1;align=center;fontStyle=1;fontSize=10;" parent="1" vertex="1">
          <mxGeometry x="1594.51" y="779" width="60" height="60" as="geometry" />
        </mxCell>
        <mxCell id="MmX11wm5HvuTR1FrTXqp-316" value="1:N" style="text;html=1;strokeColor=none;fillColor=none;align=center;verticalAlign=middle;whiteSpace=wrap;rounded=0;fontSize=15;fontStyle=1;rotation=90;" parent="1" vertex="1">
          <mxGeometry x="1654.51" y="798.5" width="22.5" height="15.75" as="geometry" />
        </mxCell>
        <mxCell id="MmX11wm5HvuTR1FrTXqp-317" value="" style="endArrow=none;html=1;rounded=0;fontColor=#000000;strokeColor=#000000;exitX=1;exitY=1;exitDx=0;exitDy=0;entryX=0;entryY=1;entryDx=0;entryDy=0;" parent="1" edge="1">
          <mxGeometry width="50" height="50" relative="1" as="geometry">
            <mxPoint x="1639.51" y="794" as="sourcePoint" />
            <mxPoint x="1609.51" y="794" as="targetPoint" />
          </mxGeometry>
        </mxCell>
        <mxCell id="MmX11wm5HvuTR1FrTXqp-318" value="E" style="text;html=1;strokeColor=none;fillColor=none;align=center;verticalAlign=middle;whiteSpace=wrap;rounded=0;fontSize=8;fontStyle=1" parent="1" vertex="1">
          <mxGeometry x="1618.89" y="782.5" width="11.25" height="12" as="geometry" />
        </mxCell>
        <mxCell id="MmX11wm5HvuTR1FrTXqp-324" value="" style="endArrow=classic;html=1;rounded=0;entryX=1;entryY=1;entryDx=0;entryDy=0;exitX=0.5;exitY=0;exitDx=0;exitDy=0;" parent="1" source="MmX11wm5HvuTR1FrTXqp-315" target="MmX11wm5HvuTR1FrTXqp-202" edge="1">
          <mxGeometry width="50" height="50" relative="1" as="geometry">
            <mxPoint x="1099.51" y="530" as="sourcePoint" />
            <mxPoint x="1149.51" y="480" as="targetPoint" />
            <Array as="points">
              <mxPoint x="1625" y="378" />
            </Array>
          </mxGeometry>
        </mxCell>
        <mxCell id="MmX11wm5HvuTR1FrTXqp-325" value="" style="endArrow=classic;html=1;rounded=0;exitX=0.5;exitY=1;exitDx=0;exitDy=0;entryX=1;entryY=1;entryDx=0;entryDy=0;" parent="1" source="MmX11wm5HvuTR1FrTXqp-315" target="MmX11wm5HvuTR1FrTXqp-278" edge="1">
          <mxGeometry width="50" height="50" relative="1" as="geometry">
            <mxPoint x="1099.51" y="600" as="sourcePoint" />
            <mxPoint x="1149.51" y="550" as="targetPoint" />
            <Array as="points">
              <mxPoint x="1625" y="1080" />
            </Array>
          </mxGeometry>
        </mxCell>
        <mxCell id="MmX11wm5HvuTR1FrTXqp-326" value="(0,N)" style="text;html=1;strokeColor=none;fillColor=none;align=left;verticalAlign=middle;whiteSpace=wrap;rounded=0;fontSize=9;" parent="1" vertex="1">
          <mxGeometry x="1231.8799999999999" y="317.25" width="25.5" height="12.5" as="geometry" />
        </mxCell>
        <mxCell id="MmX11wm5HvuTR1FrTXqp-327" value="(0,N)" style="text;html=1;strokeColor=none;fillColor=none;align=left;verticalAlign=middle;whiteSpace=wrap;rounded=0;fontSize=9;" parent="1" vertex="1">
          <mxGeometry x="1599.39" y="1063.7599999999998" width="25.5" height="12.5" as="geometry" />
        </mxCell>
        <mxCell id="MmX11wm5HvuTR1FrTXqp-328" value="esGestionado" style="text;html=1;strokeColor=none;fillColor=none;align=left;verticalAlign=middle;whiteSpace=wrap;rounded=0;fontSize=9;" parent="1" vertex="1">
          <mxGeometry x="1224.64" y="335.5" width="55" height="12.5" as="geometry" />
        </mxCell>
        <mxCell id="MmX11wm5HvuTR1FrTXqp-329" value="genera" style="text;html=1;strokeColor=none;fillColor=none;align=left;verticalAlign=middle;whiteSpace=wrap;rounded=0;fontSize=9;" parent="1" vertex="1">
          <mxGeometry x="1596.14" y="1078.5099999999998" width="55" height="12.5" as="geometry" />
        </mxCell>
        <mxCell id="MmX11wm5HvuTR1FrTXqp-333" value="" style="endArrow=none;html=1;rounded=0;entryX=0.5;entryY=0;entryDx=0;entryDy=0;exitX=0.797;exitY=0.998;exitDx=0;exitDy=0;exitPerimeter=0;" parent="1" edge="1">
          <mxGeometry width="50" height="50" relative="1" as="geometry">
            <mxPoint x="1524.05" y="1079.27" as="sourcePoint" />
            <mxPoint x="1524.26" y="1090.0099999999998" as="targetPoint" />
          </mxGeometry>
        </mxCell>
        <mxCell id="MmX11wm5HvuTR1FrTXqp-334" value="" style="ellipse;whiteSpace=wrap;html=1;aspect=fixed;fillColor=#CCCCCC;strokeColor=#000000;fontColor=#000000;" parent="1" vertex="1">
          <mxGeometry x="1518.76" y="1090.0099999999998" width="11" height="11" as="geometry" />
        </mxCell>
        <mxCell id="MmX11wm5HvuTR1FrTXqp-336" value="idJun" style="text;html=1;strokeColor=none;fillColor=none;align=left;verticalAlign=middle;whiteSpace=wrap;rounded=0;fontSize=9;" parent="1" vertex="1">
          <mxGeometry x="1516.51" y="1101.13" width="30.25" height="12.5" as="geometry" />
        </mxCell>
        <mxCell id="MmX11wm5HvuTR1FrTXqp-346" value="Director" style="shape=ext;margin=3;double=1;whiteSpace=wrap;html=1;align=center;" parent="1" vertex="1">
          <mxGeometry x="166.55" y="703.9799999999999" width="100" height="60" as="geometry" />
        </mxCell>
        <mxCell id="MmX11wm5HvuTR1FrTXqp-347" value="Secretario" style="shape=ext;margin=3;double=1;whiteSpace=wrap;html=1;align=center;" parent="1" vertex="1">
          <mxGeometry x="285.55" y="703.9799999999999" width="100" height="60" as="geometry" />
        </mxCell>
        <mxCell id="MmX11wm5HvuTR1FrTXqp-351" value="(0,1)" style="text;html=1;strokeColor=none;fillColor=none;align=left;verticalAlign=middle;whiteSpace=wrap;rounded=0;fontSize=9;" parent="1" vertex="1">
          <mxGeometry x="164.3" y="765.9799999999998" width="20" height="12.5" as="geometry" />
        </mxCell>
        <mxCell id="MmX11wm5HvuTR1FrTXqp-352" value="(0,1)" style="text;html=1;strokeColor=none;fillColor=none;align=left;verticalAlign=middle;whiteSpace=wrap;rounded=0;fontSize=9;" parent="1" vertex="1">
          <mxGeometry x="300.3" y="765.9799999999998" width="20" height="12.5" as="geometry" />
        </mxCell>
        <mxCell id="MmX11wm5HvuTR1FrTXqp-353" value="id" style="text;html=1;strokeColor=none;fillColor=none;align=left;verticalAlign=middle;whiteSpace=wrap;rounded=0;fontSize=9;" parent="1" vertex="1">
          <mxGeometry x="240.55" y="782.7299999999998" width="47" height="10.75" as="geometry" />
        </mxCell>
        <mxCell id="MmX11wm5HvuTR1FrTXqp-354" value="id" style="text;html=1;strokeColor=none;fillColor=none;align=left;verticalAlign=middle;whiteSpace=wrap;rounded=0;fontSize=9;" parent="1" vertex="1">
          <mxGeometry x="362.80000000000007" y="782.7299999999998" width="49" height="10.75" as="geometry" />
        </mxCell>
        <mxCell id="MmX11wm5HvuTR1FrTXqp-355" value="" style="endArrow=none;html=1;rounded=0;entryX=0.5;entryY=0;entryDx=0;entryDy=0;exitX=0.5;exitY=1;exitDx=0;exitDy=0;" parent="1" target="MmX11wm5HvuTR1FrTXqp-373" edge="1">
          <mxGeometry width="50" height="50" relative="1" as="geometry">
            <mxPoint x="230.55" y="763.9799999999998" as="sourcePoint" />
            <mxPoint x="205.55" y="773.2299999999998" as="targetPoint" />
          </mxGeometry>
        </mxCell>
        <mxCell id="MmX11wm5HvuTR1FrTXqp-356" value="" style="endArrow=none;html=1;rounded=0;entryX=0.5;entryY=0;entryDx=0;entryDy=0;exitX=0.5;exitY=1;exitDx=0;exitDy=0;" parent="1" target="MmX11wm5HvuTR1FrTXqp-374" edge="1">
          <mxGeometry width="50" height="50" relative="1" as="geometry">
            <mxPoint x="351.55000000000007" y="763.9799999999998" as="sourcePoint" />
            <mxPoint x="326.5500000000001" y="773.2299999999998" as="targetPoint" />
          </mxGeometry>
        </mxCell>
        <mxCell id="MmX11wm5HvuTR1FrTXqp-357" value="Subdirector" style="shape=ext;margin=3;double=1;whiteSpace=wrap;html=1;align=center;" parent="1" vertex="1">
          <mxGeometry x="405.55000000000007" y="704.4799999999999" width="100" height="60" as="geometry" />
        </mxCell>
        <mxCell id="MmX11wm5HvuTR1FrTXqp-358" value="(0,1)" style="text;html=1;strokeColor=none;fillColor=none;align=left;verticalAlign=middle;whiteSpace=wrap;rounded=0;fontSize=9;" parent="1" vertex="1">
          <mxGeometry x="411.80000000000007" y="765.8599999999999" width="20" height="12.5" as="geometry" />
        </mxCell>
        <mxCell id="MmX11wm5HvuTR1FrTXqp-359" value="id" style="text;html=1;strokeColor=none;fillColor=none;align=left;verticalAlign=middle;whiteSpace=wrap;rounded=0;fontSize=9;" parent="1" vertex="1">
          <mxGeometry x="482.93000000000006" y="781.7299999999998" width="48.5" height="11.75" as="geometry" />
        </mxCell>
        <mxCell id="MmX11wm5HvuTR1FrTXqp-368" value="" style="edgeStyle=none;rounded=0;orthogonalLoop=1;jettySize=auto;html=1;endArrow=none;endFill=0;exitX=0.5;exitY=0;exitDx=0;exitDy=0;" parent="1" source="MmX11wm5HvuTR1FrTXqp-375" edge="1">
          <mxGeometry relative="1" as="geometry">
            <mxPoint x="475.80000000000007" y="778.2299999999998" as="sourcePoint" />
            <mxPoint x="475.55000000000007" y="765.2299999999998" as="targetPoint" />
          </mxGeometry>
        </mxCell>
        <mxCell id="MmX11wm5HvuTR1FrTXqp-373" value="" style="ellipse;whiteSpace=wrap;html=1;aspect=fixed;fillColor=#CCCCCC;strokeColor=#000000;fontColor=#000000;" parent="1" vertex="1">
          <mxGeometry x="225.05" y="782.7299999999998" width="11" height="11" as="geometry" />
        </mxCell>
        <mxCell id="MmX11wm5HvuTR1FrTXqp-374" value="" style="ellipse;whiteSpace=wrap;html=1;aspect=fixed;fillColor=#CCCCCC;strokeColor=#000000;fontColor=#000000;" parent="1" vertex="1">
          <mxGeometry x="345.79999999999995" y="782.7299999999998" width="11" height="11" as="geometry" />
        </mxCell>
        <mxCell id="MmX11wm5HvuTR1FrTXqp-375" value="" style="ellipse;whiteSpace=wrap;html=1;aspect=fixed;fillColor=#CCCCCC;strokeColor=#000000;fontColor=#000000;" parent="1" vertex="1">
          <mxGeometry x="470.30000000000007" y="783.2299999999998" width="11" height="11" as="geometry" />
        </mxCell>
        <mxCell id="MmX11wm5HvuTR1FrTXqp-391" value="Secretaría Dirección" style="shape=ext;margin=3;double=1;whiteSpace=wrap;html=1;align=center;" parent="1" vertex="1">
          <mxGeometry x="527.9300000000001" y="703.7299999999999" width="100" height="60" as="geometry" />
        </mxCell>
        <mxCell id="MmX11wm5HvuTR1FrTXqp-392" value="(0,1)" style="text;html=1;strokeColor=none;fillColor=none;align=left;verticalAlign=middle;whiteSpace=wrap;rounded=0;fontSize=9;" parent="1" vertex="1">
          <mxGeometry x="534.1800000000001" y="765.1099999999999" width="20" height="12.5" as="geometry" />
        </mxCell>
        <mxCell id="MmX11wm5HvuTR1FrTXqp-393" value="" style="edgeStyle=none;rounded=0;orthogonalLoop=1;jettySize=auto;html=1;endArrow=none;endFill=0;exitX=0.5;exitY=0;exitDx=0;exitDy=0;" parent="1" source="MmX11wm5HvuTR1FrTXqp-394" edge="1">
          <mxGeometry relative="1" as="geometry">
            <mxPoint x="598.1800000000001" y="777.4799999999998" as="sourcePoint" />
            <mxPoint x="597.93" y="764.4799999999998" as="targetPoint" />
          </mxGeometry>
        </mxCell>
        <mxCell id="MmX11wm5HvuTR1FrTXqp-394" value="" style="ellipse;whiteSpace=wrap;html=1;aspect=fixed;fillColor=#CCCCCC;strokeColor=#000000;fontColor=#000000;" parent="1" vertex="1">
          <mxGeometry x="592.6800000000001" y="782.4799999999998" width="11" height="11" as="geometry" />
        </mxCell>
        <mxCell id="MmX11wm5HvuTR1FrTXqp-396" value="id" style="text;html=1;strokeColor=none;fillColor=none;align=left;verticalAlign=middle;whiteSpace=wrap;rounded=0;fontSize=9;" parent="1" vertex="1">
          <mxGeometry x="612.4300000000001" y="790.2299999999998" width="48.5" height="11.75" as="geometry" />
        </mxCell>
        <mxCell id="MmX11wm5HvuTR1FrTXqp-397" value="Usuarios" style="whiteSpace=wrap;html=1;align=center;" parent="1" vertex="1">
          <mxGeometry x="340.72" y="1003.8800000000001" width="100" height="60" as="geometry" />
        </mxCell>
        <mxCell id="MmX11wm5HvuTR1FrTXqp-398" value="e_mail" style="text;html=1;strokeColor=none;fillColor=none;align=left;verticalAlign=middle;whiteSpace=wrap;rounded=0;fontSize=9;fontColor=#000000;" parent="1" vertex="1">
          <mxGeometry x="375.97" y="1102.25" width="42.25" height="12.5" as="geometry" />
        </mxCell>
        <mxCell id="MmX11wm5HvuTR1FrTXqp-399" value="nombre_completo" style="text;html=1;strokeColor=none;fillColor=none;align=left;verticalAlign=middle;whiteSpace=wrap;rounded=0;fontSize=9;fontColor=#000000;" parent="1" vertex="1">
          <mxGeometry x="415.0100000000001" y="1109.25" width="86" height="15.5" as="geometry" />
        </mxCell>
        <mxCell id="MmX11wm5HvuTR1FrTXqp-400" value="" style="endArrow=none;html=1;rounded=0;fontSize=10;entryX=0.5;entryY=1;entryDx=0;entryDy=0;exitX=0.5;exitY=1;exitDx=0;exitDy=0;strokeColor=#000000;fontColor=#000000;" parent="1" source="MmX11wm5HvuTR1FrTXqp-397" target="MmX11wm5HvuTR1FrTXqp-409" edge="1">
          <mxGeometry width="50" height="50" relative="1" as="geometry">
            <mxPoint x="390.72" y="1134.88" as="sourcePoint" />
            <mxPoint x="414.220000000003" y="983.8800000000001" as="targetPoint" />
          </mxGeometry>
        </mxCell>
        <mxCell id="MmX11wm5HvuTR1FrTXqp-575" style="edgeStyle=orthogonalEdgeStyle;rounded=0;orthogonalLoop=1;jettySize=auto;html=1;exitX=1;exitY=0.5;exitDx=0;exitDy=0;entryX=0.5;entryY=1;entryDx=0;entryDy=0;" parent="1" source="MmX11wm5HvuTR1FrTXqp-401" target="MmX11wm5HvuTR1FrTXqp-346" edge="1">
          <mxGeometry relative="1" as="geometry" />
        </mxCell>
        <mxCell id="MmX11wm5HvuTR1FrTXqp-576" style="edgeStyle=orthogonalEdgeStyle;rounded=0;orthogonalLoop=1;jettySize=auto;html=1;exitX=1;exitY=0.5;exitDx=0;exitDy=0;entryX=0.5;entryY=1;entryDx=0;entryDy=0;" parent="1" source="MmX11wm5HvuTR1FrTXqp-401" target="MmX11wm5HvuTR1FrTXqp-347" edge="1">
          <mxGeometry relative="1" as="geometry" />
        </mxCell>
        <mxCell id="MmX11wm5HvuTR1FrTXqp-577" style="edgeStyle=orthogonalEdgeStyle;rounded=0;orthogonalLoop=1;jettySize=auto;html=1;exitX=1;exitY=0.5;exitDx=0;exitDy=0;entryX=0.5;entryY=1;entryDx=0;entryDy=0;" parent="1" source="MmX11wm5HvuTR1FrTXqp-401" target="MmX11wm5HvuTR1FrTXqp-357" edge="1">
          <mxGeometry relative="1" as="geometry" />
        </mxCell>
        <mxCell id="MmX11wm5HvuTR1FrTXqp-578" style="edgeStyle=orthogonalEdgeStyle;rounded=0;orthogonalLoop=1;jettySize=auto;html=1;exitX=1;exitY=0.5;exitDx=0;exitDy=0;entryX=0.5;entryY=1;entryDx=0;entryDy=0;" parent="1" source="MmX11wm5HvuTR1FrTXqp-401" target="MmX11wm5HvuTR1FrTXqp-391" edge="1">
          <mxGeometry relative="1" as="geometry" />
        </mxCell>
        <mxCell id="MmX11wm5HvuTR1FrTXqp-401" value="" style="triangle;whiteSpace=wrap;html=1;rotation=-90;" parent="1" vertex="1">
          <mxGeometry x="374.96000000000015" y="892.6099999999999" width="30" height="46" as="geometry" />
        </mxCell>
        <mxCell id="MmX11wm5HvuTR1FrTXqp-402" style="edgeStyle=orthogonalEdgeStyle;rounded=0;orthogonalLoop=1;jettySize=auto;html=1;exitX=0.5;exitY=1;exitDx=0;exitDy=0;entryX=0.5;entryY=0;entryDx=0;entryDy=0;" parent="1" source="MmX11wm5HvuTR1FrTXqp-403" target="MmX11wm5HvuTR1FrTXqp-397" edge="1">
          <mxGeometry relative="1" as="geometry" />
        </mxCell>
        <mxCell id="MmX11wm5HvuTR1FrTXqp-403" value="ES_UN" style="text;html=1;strokeColor=none;fillColor=none;align=center;verticalAlign=middle;whiteSpace=wrap;rounded=0;fontSize=8;" parent="1" vertex="1">
          <mxGeometry x="374.96000000000015" y="916.9799999999998" width="30" height="10.75" as="geometry" />
        </mxCell>
        <mxCell id="MmX11wm5HvuTR1FrTXqp-404" value="representación" style="text;html=1;strokeColor=none;fillColor=none;align=left;verticalAlign=middle;whiteSpace=wrap;rounded=0;fontSize=9;" parent="1" vertex="1">
          <mxGeometry x="439.08000000000004" y="910.1099999999999" width="21" height="12.5" as="geometry" />
        </mxCell>
        <mxCell id="MmX11wm5HvuTR1FrTXqp-405" value="" style="endArrow=none;html=1;rounded=0;entryX=0;entryY=0.5;entryDx=0;entryDy=0;exitX=0.854;exitY=-0.151;exitDx=0;exitDy=0;exitPerimeter=0;" parent="1" source="MmX11wm5HvuTR1FrTXqp-403" target="MmX11wm5HvuTR1FrTXqp-411" edge="1">
          <mxGeometry width="50" height="50" relative="1" as="geometry">
            <mxPoint x="427.21000000000015" y="905.1099999999999" as="sourcePoint" />
            <mxPoint x="424.21000000000015" y="900.3599999999999" as="targetPoint" />
          </mxGeometry>
        </mxCell>
        <mxCell id="MmX11wm5HvuTR1FrTXqp-406" value="id" style="text;html=1;strokeColor=none;fillColor=none;align=left;verticalAlign=middle;whiteSpace=wrap;rounded=0;fontSize=9;fontColor=#000000;" parent="1" vertex="1">
          <mxGeometry x="359.22" y="1090.5" width="45.25" height="12.5" as="geometry" />
        </mxCell>
        <mxCell id="MmX11wm5HvuTR1FrTXqp-407" value="" style="endArrow=none;html=1;rounded=0;fontColor=#000000;strokeColor=#000000;entryX=0.5;entryY=1;entryDx=0;entryDy=0;exitX=0.25;exitY=1;exitDx=0;exitDy=0;" parent="1" source="MmX11wm5HvuTR1FrTXqp-397" target="MmX11wm5HvuTR1FrTXqp-410" edge="1">
          <mxGeometry width="50" height="50" relative="1" as="geometry">
            <mxPoint x="365.72" y="1134.88" as="sourcePoint" />
            <mxPoint x="414.220000000003" y="971.3800000000001" as="targetPoint" />
          </mxGeometry>
        </mxCell>
        <mxCell id="MmX11wm5HvuTR1FrTXqp-408" value="" style="ellipse;whiteSpace=wrap;html=1;aspect=fixed;fillColor=#FFFFFF;strokeColor=#000000;fontColor=#000000;" parent="1" vertex="1">
          <mxGeometry x="415.19000000000005" y="1098.25" width="11" height="11" as="geometry" />
        </mxCell>
        <mxCell id="MmX11wm5HvuTR1FrTXqp-409" value="" style="ellipse;whiteSpace=wrap;html=1;aspect=fixed;fillColor=#FFFFFF;strokeColor=#000000;fontColor=#000000;" parent="1" vertex="1">
          <mxGeometry x="385.22" y="1090.13" width="11" height="11" as="geometry" />
        </mxCell>
        <mxCell id="MmX11wm5HvuTR1FrTXqp-410" value="" style="ellipse;whiteSpace=wrap;html=1;aspect=fixed;fillColor=#000000;strokeColor=#000000;fontColor=#000000;" parent="1" vertex="1">
          <mxGeometry x="360.22" y="1075.88" width="11" height="11" as="geometry" />
        </mxCell>
        <mxCell id="MmX11wm5HvuTR1FrTXqp-411" value="" style="ellipse;whiteSpace=wrap;html=1;aspect=fixed;fillColor=#FFFFFF;strokeColor=#000000;fontColor=#000000;" parent="1" vertex="1">
          <mxGeometry x="424.55000000000007" y="910.1099999999999" width="11" height="11" as="geometry" />
        </mxCell>
        <mxCell id="MmX11wm5HvuTR1FrTXqp-412" value="" style="endArrow=none;html=1;rounded=0;fontSize=10;entryX=0.5;entryY=0;entryDx=0;entryDy=0;exitX=0.795;exitY=1.004;exitDx=0;exitDy=0;strokeColor=#000000;fontColor=#000000;exitPerimeter=0;" parent="1" source="MmX11wm5HvuTR1FrTXqp-397" target="MmX11wm5HvuTR1FrTXqp-408" edge="1">
          <mxGeometry width="50" height="50" relative="1" as="geometry">
            <mxPoint x="400.72" y="1073.88" as="sourcePoint" />
            <mxPoint x="400.72" y="1111.13" as="targetPoint" />
          </mxGeometry>
        </mxCell>
        <mxCell id="MmX11wm5HvuTR1FrTXqp-547" value="Usuarios&lt;br&gt;Categoría" style="shape=ext;margin=3;double=1;whiteSpace=wrap;html=1;align=center;" parent="1" vertex="1">
          <mxGeometry x="62.75" y="1001.27" width="118.5" height="71.74" as="geometry" />
        </mxCell>
        <mxCell id="MmX11wm5HvuTR1FrTXqp-568" style="edgeStyle=orthogonalEdgeStyle;rounded=0;orthogonalLoop=1;jettySize=auto;html=1;exitX=0.5;exitY=1;exitDx=0;exitDy=0;entryX=0.449;entryY=0.006;entryDx=0;entryDy=0;entryPerimeter=0;" parent="1" source="MmX11wm5HvuTR1FrTXqp-562" target="MmX11wm5HvuTR1FrTXqp-346" edge="1">
          <mxGeometry relative="1" as="geometry" />
        </mxCell>
        <mxCell id="MmX11wm5HvuTR1FrTXqp-630" style="edgeStyle=orthogonalEdgeStyle;rounded=0;orthogonalLoop=1;jettySize=auto;html=1;exitX=0.5;exitY=0;exitDx=0;exitDy=0;entryX=0.25;entryY=1;entryDx=0;entryDy=0;" parent="1" source="MmX11wm5HvuTR1FrTXqp-562" target="MmX11wm5HvuTR1FrTXqp-2" edge="1">
          <mxGeometry relative="1" as="geometry" />
        </mxCell>
        <mxCell id="MmX11wm5HvuTR1FrTXqp-562" value="Eg-Dir" style="shape=rhombus;perimeter=rhombusPerimeter;whiteSpace=wrap;html=1;align=center;fontStyle=1;fontSize=10;" parent="1" vertex="1">
          <mxGeometry x="179.45000000000005" y="491.25" width="60" height="60" as="geometry" />
        </mxCell>
        <mxCell id="MmX11wm5HvuTR1FrTXqp-563" value="1:N" style="text;html=1;strokeColor=none;fillColor=none;align=center;verticalAlign=middle;whiteSpace=wrap;rounded=0;fontSize=15;fontStyle=1;rotation=90;" parent="1" vertex="1">
          <mxGeometry x="240.08999999999997" y="511.37" width="22.43" height="20" as="geometry" />
        </mxCell>
        <mxCell id="MmX11wm5HvuTR1FrTXqp-564" value="EX" style="text;html=1;strokeColor=none;fillColor=none;align=center;verticalAlign=middle;whiteSpace=wrap;rounded=0;fontSize=8;fontStyle=1" parent="1" vertex="1">
          <mxGeometry x="203.24" y="490.25" width="12.43" height="20" as="geometry" />
        </mxCell>
        <mxCell id="MmX11wm5HvuTR1FrTXqp-565" value="" style="endArrow=none;html=1;rounded=0;exitX=1;exitY=0;exitDx=0;exitDy=0;entryX=0;entryY=0;entryDx=0;entryDy=0;" parent="1" source="MmX11wm5HvuTR1FrTXqp-562" target="MmX11wm5HvuTR1FrTXqp-562" edge="1">
          <mxGeometry width="50" height="50" relative="1" as="geometry">
            <mxPoint x="89.44999999999999" y="511.62" as="sourcePoint" />
            <mxPoint x="139.45000000000005" y="461.62" as="targetPoint" />
          </mxGeometry>
        </mxCell>
        <mxCell id="MmX11wm5HvuTR1FrTXqp-573" style="edgeStyle=orthogonalEdgeStyle;rounded=0;orthogonalLoop=1;jettySize=auto;html=1;exitX=0.5;exitY=1;exitDx=0;exitDy=0;entryX=0.5;entryY=0;entryDx=0;entryDy=0;" parent="1" source="MmX11wm5HvuTR1FrTXqp-569" target="MmX11wm5HvuTR1FrTXqp-347" edge="1">
          <mxGeometry relative="1" as="geometry" />
        </mxCell>
        <mxCell id="yooLV80YAIJDi9W8emZc-13" style="edgeStyle=orthogonalEdgeStyle;rounded=0;orthogonalLoop=1;jettySize=auto;html=1;exitX=0.5;exitY=0;exitDx=0;exitDy=0;entryX=0.428;entryY=1.005;entryDx=0;entryDy=0;entryPerimeter=0;" parent="1" source="MmX11wm5HvuTR1FrTXqp-569" target="MmX11wm5HvuTR1FrTXqp-2" edge="1">
          <mxGeometry relative="1" as="geometry" />
        </mxCell>
        <mxCell id="MmX11wm5HvuTR1FrTXqp-569" value="Eg-Secr" style="shape=rhombus;perimeter=rhombusPerimeter;whiteSpace=wrap;html=1;align=center;fontStyle=1;fontSize=10;" parent="1" vertex="1">
          <mxGeometry x="302.20000000000005" y="491.25" width="60" height="60" as="geometry" />
        </mxCell>
        <mxCell id="MmX11wm5HvuTR1FrTXqp-571" value="EX" style="text;html=1;strokeColor=none;fillColor=none;align=center;verticalAlign=middle;whiteSpace=wrap;rounded=0;fontSize=8;fontStyle=1" parent="1" vertex="1">
          <mxGeometry x="325.98" y="490.25" width="12.43" height="20" as="geometry" />
        </mxCell>
        <mxCell id="MmX11wm5HvuTR1FrTXqp-572" value="" style="endArrow=none;html=1;rounded=0;exitX=1;exitY=0;exitDx=0;exitDy=0;entryX=0;entryY=0;entryDx=0;entryDy=0;" parent="1" source="MmX11wm5HvuTR1FrTXqp-569" target="MmX11wm5HvuTR1FrTXqp-569" edge="1">
          <mxGeometry width="50" height="50" relative="1" as="geometry">
            <mxPoint x="212.20000000000005" y="511.62" as="sourcePoint" />
            <mxPoint x="262.20000000000005" y="461.62" as="targetPoint" />
          </mxGeometry>
        </mxCell>
        <mxCell id="MmX11wm5HvuTR1FrTXqp-628" style="edgeStyle=orthogonalEdgeStyle;rounded=0;orthogonalLoop=1;jettySize=auto;html=1;exitX=0.5;exitY=1;exitDx=0;exitDy=0;" parent="1" source="MmX11wm5HvuTR1FrTXqp-579" target="MmX11wm5HvuTR1FrTXqp-357" edge="1">
          <mxGeometry relative="1" as="geometry" />
        </mxCell>
        <mxCell id="MmX11wm5HvuTR1FrTXqp-634" style="edgeStyle=orthogonalEdgeStyle;rounded=0;orthogonalLoop=1;jettySize=auto;html=1;exitX=0.5;exitY=0;exitDx=0;exitDy=0;entryX=0.629;entryY=1.022;entryDx=0;entryDy=0;entryPerimeter=0;" parent="1" source="MmX11wm5HvuTR1FrTXqp-579" target="MmX11wm5HvuTR1FrTXqp-2" edge="1">
          <mxGeometry relative="1" as="geometry">
            <Array as="points">
              <mxPoint x="473.51" y="428.12" />
              <mxPoint x="432.51" y="428.12" />
            </Array>
          </mxGeometry>
        </mxCell>
        <mxCell id="MmX11wm5HvuTR1FrTXqp-579" value="Eg-Dir" style="shape=rhombus;perimeter=rhombusPerimeter;whiteSpace=wrap;html=1;align=center;fontStyle=1;fontSize=10;" parent="1" vertex="1">
          <mxGeometry x="429.08000000000004" y="491.25" width="60" height="60" as="geometry" />
        </mxCell>
        <mxCell id="MmX11wm5HvuTR1FrTXqp-581" value="EX" style="text;html=1;strokeColor=none;fillColor=none;align=center;verticalAlign=middle;whiteSpace=wrap;rounded=0;fontSize=8;fontStyle=1" parent="1" vertex="1">
          <mxGeometry x="454.05999999999995" y="490.25" width="12.43" height="20" as="geometry" />
        </mxCell>
        <mxCell id="MmX11wm5HvuTR1FrTXqp-582" value="" style="endArrow=none;html=1;rounded=0;exitX=1;exitY=0;exitDx=0;exitDy=0;entryX=0;entryY=0;entryDx=0;entryDy=0;" parent="1" source="MmX11wm5HvuTR1FrTXqp-579" target="MmX11wm5HvuTR1FrTXqp-579" edge="1">
          <mxGeometry width="50" height="50" relative="1" as="geometry">
            <mxPoint x="339.08000000000004" y="511.62" as="sourcePoint" />
            <mxPoint x="389.08000000000004" y="461.62" as="targetPoint" />
          </mxGeometry>
        </mxCell>
        <mxCell id="MmX11wm5HvuTR1FrTXqp-629" style="edgeStyle=orthogonalEdgeStyle;rounded=0;orthogonalLoop=1;jettySize=auto;html=1;exitX=0.5;exitY=1;exitDx=0;exitDy=0;" parent="1" source="MmX11wm5HvuTR1FrTXqp-583" target="MmX11wm5HvuTR1FrTXqp-391" edge="1">
          <mxGeometry relative="1" as="geometry" />
        </mxCell>
        <mxCell id="MmX11wm5HvuTR1FrTXqp-633" style="edgeStyle=orthogonalEdgeStyle;rounded=0;orthogonalLoop=1;jettySize=auto;html=1;exitX=0.5;exitY=0;exitDx=0;exitDy=0;entryX=0.75;entryY=1;entryDx=0;entryDy=0;" parent="1" source="MmX11wm5HvuTR1FrTXqp-583" target="MmX11wm5HvuTR1FrTXqp-2" edge="1">
          <mxGeometry relative="1" as="geometry" />
        </mxCell>
        <mxCell id="MmX11wm5HvuTR1FrTXqp-583" value="Eg-Secr" style="shape=rhombus;perimeter=rhombusPerimeter;whiteSpace=wrap;html=1;align=center;fontStyle=1;fontSize=10;" parent="1" vertex="1">
          <mxGeometry x="551.83" y="491.25" width="60" height="60" as="geometry" />
        </mxCell>
        <mxCell id="MmX11wm5HvuTR1FrTXqp-585" value="EX" style="text;html=1;strokeColor=none;fillColor=none;align=center;verticalAlign=middle;whiteSpace=wrap;rounded=0;fontSize=8;fontStyle=1" parent="1" vertex="1">
          <mxGeometry x="575" y="490.25" width="12.43" height="20" as="geometry" />
        </mxCell>
        <mxCell id="MmX11wm5HvuTR1FrTXqp-586" value="" style="endArrow=none;html=1;rounded=0;exitX=1;exitY=0;exitDx=0;exitDy=0;entryX=0;entryY=0;entryDx=0;entryDy=0;" parent="1" source="MmX11wm5HvuTR1FrTXqp-583" target="MmX11wm5HvuTR1FrTXqp-583" edge="1">
          <mxGeometry width="50" height="50" relative="1" as="geometry">
            <mxPoint x="461.83000000000004" y="511.62" as="sourcePoint" />
            <mxPoint x="511.83000000000004" y="461.62" as="targetPoint" />
            <Array as="points" />
          </mxGeometry>
        </mxCell>
        <mxCell id="MmX11wm5HvuTR1FrTXqp-594" style="edgeStyle=orthogonalEdgeStyle;rounded=0;orthogonalLoop=1;jettySize=auto;html=1;exitX=1;exitY=0.5;exitDx=0;exitDy=0;entryX=0;entryY=0.5;entryDx=0;entryDy=0;" parent="1" source="MmX11wm5HvuTR1FrTXqp-589" target="MmX11wm5HvuTR1FrTXqp-397" edge="1">
          <mxGeometry relative="1" as="geometry" />
        </mxCell>
        <mxCell id="MmX11wm5HvuTR1FrTXqp-589" value="&amp;nbsp;Tip-Usu" style="shape=rhombus;perimeter=rhombusPerimeter;whiteSpace=wrap;html=1;align=left;fontStyle=1;fontSize=10;" parent="1" vertex="1">
          <mxGeometry x="237.87" y="1003.51" width="60" height="60" as="geometry" />
        </mxCell>
        <mxCell id="MmX11wm5HvuTR1FrTXqp-590" value="N:1" style="text;html=1;strokeColor=none;fillColor=none;align=center;verticalAlign=middle;whiteSpace=wrap;rounded=0;fontSize=15;fontStyle=1" parent="1" vertex="1">
          <mxGeometry x="257.65999999999997" y="981.6300000000001" width="22.43" height="20" as="geometry" />
        </mxCell>
        <mxCell id="MmX11wm5HvuTR1FrTXqp-593" style="edgeStyle=orthogonalEdgeStyle;rounded=0;orthogonalLoop=1;jettySize=auto;html=1;entryX=1.014;entryY=0.44;entryDx=0;entryDy=0;entryPerimeter=0;exitX=0;exitY=0.5;exitDx=0;exitDy=0;" parent="1" source="MmX11wm5HvuTR1FrTXqp-589" target="MmX11wm5HvuTR1FrTXqp-547" edge="1">
          <mxGeometry relative="1" as="geometry">
            <mxPoint x="245.37" y="1033.1200000000001" as="sourcePoint" />
          </mxGeometry>
        </mxCell>
        <mxCell id="MmX11wm5HvuTR1FrTXqp-591" value="ID" style="text;html=1;strokeColor=none;fillColor=none;align=center;verticalAlign=middle;whiteSpace=wrap;rounded=0;fontSize=8;fontStyle=1" parent="1" vertex="1">
          <mxGeometry x="283.40999999999997" y="1023.6300000000001" width="12.43" height="20" as="geometry" />
        </mxCell>
        <mxCell id="MmX11wm5HvuTR1FrTXqp-592" value="" style="endArrow=none;html=1;rounded=0;exitX=0;exitY=0;exitDx=0;exitDy=0;entryX=0;entryY=1;entryDx=0;entryDy=0;" parent="1" edge="1">
          <mxGeometry width="50" height="50" relative="1" as="geometry">
            <mxPoint x="282.87" y="1018.51" as="sourcePoint" />
            <mxPoint x="282.87" y="1048.5100000000004" as="targetPoint" />
          </mxGeometry>
        </mxCell>
        <mxCell id="MmX11wm5HvuTR1FrTXqp-608" value="tipo" style="text;html=1;strokeColor=none;fillColor=none;align=left;verticalAlign=middle;whiteSpace=wrap;rounded=0;fontSize=9;fontColor=#000000;" parent="1" vertex="1">
          <mxGeometry x="136.25" y="1101.2499999999998" width="21.97" height="12.5" as="geometry" />
        </mxCell>
        <mxCell id="MmX11wm5HvuTR1FrTXqp-609" value="desc" style="text;html=1;strokeColor=none;fillColor=none;align=left;verticalAlign=middle;whiteSpace=wrap;rounded=0;fontSize=9;fontColor=#000000;" parent="1" vertex="1">
          <mxGeometry x="150.55" y="1082.75" width="45.93" height="15.5" as="geometry" />
        </mxCell>
        <mxCell id="MmX11wm5HvuTR1FrTXqp-610" value="" style="endArrow=none;html=1;rounded=0;fontSize=10;entryX=0.5;entryY=1;entryDx=0;entryDy=0;exitX=0.5;exitY=1;exitDx=0;exitDy=0;strokeColor=#000000;fontColor=#000000;" parent="1" target="MmX11wm5HvuTR1FrTXqp-614" edge="1">
          <mxGeometry width="50" height="50" relative="1" as="geometry">
            <mxPoint x="109.77999999999992" y="1073.8800000000003" as="sourcePoint" />
            <mxPoint x="133.28000000000299" y="993.8800000000001" as="targetPoint" />
          </mxGeometry>
        </mxCell>
        <mxCell id="MmX11wm5HvuTR1FrTXqp-611" value="id" style="text;html=1;strokeColor=none;fillColor=none;align=left;verticalAlign=middle;whiteSpace=wrap;rounded=0;fontSize=9;fontColor=#000000;" parent="1" vertex="1">
          <mxGeometry x="78.5" y="1144.38" width="18.72" height="12.5" as="geometry" />
        </mxCell>
        <mxCell id="MmX11wm5HvuTR1FrTXqp-612" value="" style="endArrow=none;html=1;rounded=0;fontColor=#000000;strokeColor=#000000;entryX=0.5;entryY=1;entryDx=0;entryDy=0;exitX=0.25;exitY=1;exitDx=0;exitDy=0;" parent="1" target="MmX11wm5HvuTR1FrTXqp-615" edge="1">
          <mxGeometry width="50" height="50" relative="1" as="geometry">
            <mxPoint x="71.77999999999992" y="1073.8800000000003" as="sourcePoint" />
            <mxPoint x="120.28000000000299" y="981.3800000000001" as="targetPoint" />
          </mxGeometry>
        </mxCell>
        <mxCell id="MmX11wm5HvuTR1FrTXqp-613" value="" style="ellipse;whiteSpace=wrap;html=1;aspect=fixed;fillColor=#FFFFFF;strokeColor=#000000;fontColor=#000000;" parent="1" vertex="1">
          <mxGeometry x="123.25000000000006" y="1101.25" width="11" height="11" as="geometry" />
        </mxCell>
        <mxCell id="MmX11wm5HvuTR1FrTXqp-614" value="" style="ellipse;whiteSpace=wrap;html=1;aspect=fixed;fillColor=#FFFFFF;strokeColor=#000000;fontColor=#000000;" parent="1" vertex="1">
          <mxGeometry x="104.28000000000003" y="1117.13" width="11" height="11" as="geometry" />
        </mxCell>
        <mxCell id="MmX11wm5HvuTR1FrTXqp-615" value="" style="ellipse;whiteSpace=wrap;html=1;aspect=fixed;fillColor=#000000;strokeColor=#000000;fontColor=#000000;" parent="1" vertex="1">
          <mxGeometry x="66.28000000000003" y="1144.88" width="11" height="11" as="geometry" />
        </mxCell>
        <mxCell id="MmX11wm5HvuTR1FrTXqp-616" value="" style="endArrow=none;html=1;rounded=0;fontSize=10;entryX=0.5;entryY=0;entryDx=0;entryDy=0;exitX=0.561;exitY=0.996;exitDx=0;exitDy=0;strokeColor=#000000;fontColor=#000000;exitPerimeter=0;" parent="1" target="MmX11wm5HvuTR1FrTXqp-613" edge="1">
          <mxGeometry width="50" height="50" relative="1" as="geometry">
            <mxPoint x="128.22849999999994" y="1072.72304" as="sourcePoint" />
            <mxPoint x="133.7500000000001" y="1086.25" as="targetPoint" />
          </mxGeometry>
        </mxCell>
        <mxCell id="MmX11wm5HvuTR1FrTXqp-617" value="" style="edgeStyle=none;rounded=0;orthogonalLoop=1;jettySize=auto;html=1;endArrow=none;endFill=0;exitX=0.5;exitY=0;exitDx=0;exitDy=0;" parent="1" source="MmX11wm5HvuTR1FrTXqp-618" edge="1">
          <mxGeometry relative="1" as="geometry">
            <mxPoint x="438.26" y="1076.8799999999999" as="sourcePoint" />
            <mxPoint x="438.0099999999999" y="1063.8799999999999" as="targetPoint" />
          </mxGeometry>
        </mxCell>
        <mxCell id="MmX11wm5HvuTR1FrTXqp-618" value="" style="ellipse;whiteSpace=wrap;html=1;aspect=fixed;fillColor=#CCCCCC;strokeColor=#000000;fontColor=#000000;" parent="1" vertex="1">
          <mxGeometry x="432.76" y="1081.8799999999999" width="11" height="11" as="geometry" />
        </mxCell>
        <mxCell id="MmX11wm5HvuTR1FrTXqp-619" value="idTipo" style="text;html=1;strokeColor=none;fillColor=none;align=left;verticalAlign=middle;whiteSpace=wrap;rounded=0;fontSize=9;" parent="1" vertex="1">
          <mxGeometry x="452.51" y="1082.6299999999999" width="48.5" height="11.75" as="geometry" />
        </mxCell>
        <mxCell id="MmX11wm5HvuTR1FrTXqp-635" value="fechaInicio" style="text;html=1;strokeColor=none;fillColor=none;align=left;verticalAlign=middle;whiteSpace=wrap;rounded=0;fontSize=9;" parent="1" vertex="1">
          <mxGeometry x="159.11" y="659.4799999999999" width="65" height="12.5" as="geometry" />
        </mxCell>
        <mxCell id="MmX11wm5HvuTR1FrTXqp-636" value="" style="ellipse;whiteSpace=wrap;html=1;aspect=fixed;fillColor=#FFFFFF;strokeColor=#000000;fontColor=#000000;" parent="1" vertex="1">
          <mxGeometry x="179.04999999999995" y="672.9800000000001" width="11" height="11" as="geometry" />
        </mxCell>
        <mxCell id="MmX11wm5HvuTR1FrTXqp-637" value="" style="ellipse;whiteSpace=wrap;html=1;aspect=fixed;fillColor=#FFFFFF;strokeColor=#000000;fontColor=#000000;" parent="1" vertex="1">
          <mxGeometry x="239.94" y="673.7300000000001" width="11" height="11" as="geometry" />
        </mxCell>
        <mxCell id="MmX11wm5HvuTR1FrTXqp-638" value="fechaFin" style="text;html=1;strokeColor=none;fillColor=none;align=left;verticalAlign=middle;whiteSpace=wrap;rounded=0;fontSize=9;" parent="1" vertex="1">
          <mxGeometry x="225.04999999999995" y="659.48" width="45.06" height="12.5" as="geometry" />
        </mxCell>
        <mxCell id="MmX11wm5HvuTR1FrTXqp-639" value="" style="endArrow=none;html=1;rounded=0;exitX=0.176;exitY=0.008;exitDx=0;exitDy=0;exitPerimeter=0;entryX=0.5;entryY=1;entryDx=0;entryDy=0;" parent="1" source="MmX11wm5HvuTR1FrTXqp-346" target="MmX11wm5HvuTR1FrTXqp-636" edge="1">
          <mxGeometry width="50" height="50" relative="1" as="geometry">
            <mxPoint x="217.61749999999978" y="665.6466200000001" as="sourcePoint" />
            <mxPoint x="182.10999999999996" y="669.48" as="targetPoint" />
          </mxGeometry>
        </mxCell>
        <mxCell id="MmX11wm5HvuTR1FrTXqp-640" value="" style="endArrow=none;html=1;rounded=0;entryX=0.5;entryY=1;entryDx=0;entryDy=0;exitX=0.782;exitY=0.008;exitDx=0;exitDy=0;exitPerimeter=0;" parent="1" source="MmX11wm5HvuTR1FrTXqp-346" target="MmX11wm5HvuTR1FrTXqp-637" edge="1">
          <mxGeometry width="50" height="50" relative="1" as="geometry">
            <mxPoint x="218.20749999999947" y="678.3566200000001" as="sourcePoint" />
            <mxPoint x="240.5299999999997" y="678.4399999999997" as="targetPoint" />
          </mxGeometry>
        </mxCell>
        <mxCell id="MmX11wm5HvuTR1FrTXqp-642" value="fechaInicio" style="text;html=1;strokeColor=none;fillColor=none;align=left;verticalAlign=middle;whiteSpace=wrap;rounded=0;fontSize=9;" parent="1" vertex="1">
          <mxGeometry x="281.58" y="659.4999999999999" width="65" height="12.5" as="geometry" />
        </mxCell>
        <mxCell id="MmX11wm5HvuTR1FrTXqp-643" value="" style="ellipse;whiteSpace=wrap;html=1;aspect=fixed;fillColor=#FFFFFF;strokeColor=#000000;fontColor=#000000;" parent="1" vertex="1">
          <mxGeometry x="301.5199999999999" y="673.0000000000001" width="11" height="11" as="geometry" />
        </mxCell>
        <mxCell id="MmX11wm5HvuTR1FrTXqp-644" value="" style="ellipse;whiteSpace=wrap;html=1;aspect=fixed;fillColor=#FFFFFF;strokeColor=#000000;fontColor=#000000;" parent="1" vertex="1">
          <mxGeometry x="362.4100000000001" y="673.7500000000001" width="11" height="11" as="geometry" />
        </mxCell>
        <mxCell id="MmX11wm5HvuTR1FrTXqp-645" value="fechaFin" style="text;html=1;strokeColor=none;fillColor=none;align=left;verticalAlign=middle;whiteSpace=wrap;rounded=0;fontSize=9;" parent="1" vertex="1">
          <mxGeometry x="347.52" y="659.5" width="45.06" height="12.5" as="geometry" />
        </mxCell>
        <mxCell id="MmX11wm5HvuTR1FrTXqp-646" value="" style="endArrow=none;html=1;rounded=0;exitX=0.176;exitY=0.008;exitDx=0;exitDy=0;exitPerimeter=0;entryX=0.5;entryY=1;entryDx=0;entryDy=0;" parent="1" target="MmX11wm5HvuTR1FrTXqp-643" edge="1">
          <mxGeometry width="50" height="50" relative="1" as="geometry">
            <mxPoint x="306.62000000000006" y="704.48" as="sourcePoint" />
            <mxPoint x="304.58" y="669.5" as="targetPoint" />
          </mxGeometry>
        </mxCell>
        <mxCell id="MmX11wm5HvuTR1FrTXqp-647" value="" style="endArrow=none;html=1;rounded=0;entryX=0.5;entryY=1;entryDx=0;entryDy=0;exitX=0.782;exitY=0.008;exitDx=0;exitDy=0;exitPerimeter=0;" parent="1" target="MmX11wm5HvuTR1FrTXqp-644" edge="1">
          <mxGeometry width="50" height="50" relative="1" as="geometry">
            <mxPoint x="367.22" y="704.48" as="sourcePoint" />
            <mxPoint x="362.9999999999998" y="678.4599999999997" as="targetPoint" />
          </mxGeometry>
        </mxCell>
        <mxCell id="MmX11wm5HvuTR1FrTXqp-648" value="fechaInicio" style="text;html=1;strokeColor=none;fillColor=none;align=left;verticalAlign=middle;whiteSpace=wrap;rounded=0;fontSize=9;" parent="1" vertex="1">
          <mxGeometry x="400.55000000000007" y="659.4999999999999" width="65" height="12.5" as="geometry" />
        </mxCell>
        <mxCell id="MmX11wm5HvuTR1FrTXqp-649" value="" style="ellipse;whiteSpace=wrap;html=1;aspect=fixed;fillColor=#FFFFFF;strokeColor=#000000;fontColor=#000000;" parent="1" vertex="1">
          <mxGeometry x="420.49" y="673.0000000000001" width="11" height="11" as="geometry" />
        </mxCell>
        <mxCell id="MmX11wm5HvuTR1FrTXqp-650" value="" style="ellipse;whiteSpace=wrap;html=1;aspect=fixed;fillColor=#FFFFFF;strokeColor=#000000;fontColor=#000000;" parent="1" vertex="1">
          <mxGeometry x="481.38" y="673.7500000000001" width="11" height="11" as="geometry" />
        </mxCell>
        <mxCell id="MmX11wm5HvuTR1FrTXqp-651" value="fechaFin" style="text;html=1;strokeColor=none;fillColor=none;align=left;verticalAlign=middle;whiteSpace=wrap;rounded=0;fontSize=9;" parent="1" vertex="1">
          <mxGeometry x="466.49" y="659.5" width="45.06" height="12.5" as="geometry" />
        </mxCell>
        <mxCell id="MmX11wm5HvuTR1FrTXqp-652" value="" style="endArrow=none;html=1;rounded=0;exitX=0.176;exitY=0.008;exitDx=0;exitDy=0;exitPerimeter=0;entryX=0.5;entryY=1;entryDx=0;entryDy=0;" parent="1" target="MmX11wm5HvuTR1FrTXqp-649" edge="1">
          <mxGeometry width="50" height="50" relative="1" as="geometry">
            <mxPoint x="425.59000000000003" y="704.48" as="sourcePoint" />
            <mxPoint x="423.55000000000007" y="669.5" as="targetPoint" />
          </mxGeometry>
        </mxCell>
        <mxCell id="MmX11wm5HvuTR1FrTXqp-653" value="" style="endArrow=none;html=1;rounded=0;entryX=0.5;entryY=1;entryDx=0;entryDy=0;exitX=0.782;exitY=0.008;exitDx=0;exitDy=0;exitPerimeter=0;" parent="1" target="MmX11wm5HvuTR1FrTXqp-650" edge="1">
          <mxGeometry width="50" height="50" relative="1" as="geometry">
            <mxPoint x="486.18999999999994" y="704.48" as="sourcePoint" />
            <mxPoint x="481.9699999999997" y="678.4599999999997" as="targetPoint" />
          </mxGeometry>
        </mxCell>
        <mxCell id="MmX11wm5HvuTR1FrTXqp-654" value="fechaInicio" style="text;html=1;strokeColor=none;fillColor=none;align=left;verticalAlign=middle;whiteSpace=wrap;rounded=0;fontSize=9;" parent="1" vertex="1">
          <mxGeometry x="522.4300000000001" y="658.9999999999999" width="65" height="12.5" as="geometry" />
        </mxCell>
        <mxCell id="MmX11wm5HvuTR1FrTXqp-655" value="" style="ellipse;whiteSpace=wrap;html=1;aspect=fixed;fillColor=#FFFFFF;strokeColor=#000000;fontColor=#000000;" parent="1" vertex="1">
          <mxGeometry x="542.37" y="672.5000000000001" width="11" height="11" as="geometry" />
        </mxCell>
        <mxCell id="MmX11wm5HvuTR1FrTXqp-656" value="" style="ellipse;whiteSpace=wrap;html=1;aspect=fixed;fillColor=#FFFFFF;strokeColor=#000000;fontColor=#000000;" parent="1" vertex="1">
          <mxGeometry x="603.2600000000001" y="673.2500000000001" width="11" height="11" as="geometry" />
        </mxCell>
        <mxCell id="MmX11wm5HvuTR1FrTXqp-657" value="fechaFin" style="text;html=1;strokeColor=none;fillColor=none;align=left;verticalAlign=middle;whiteSpace=wrap;rounded=0;fontSize=9;" parent="1" vertex="1">
          <mxGeometry x="588.37" y="659" width="45.06" height="12.5" as="geometry" />
        </mxCell>
        <mxCell id="MmX11wm5HvuTR1FrTXqp-658" value="" style="endArrow=none;html=1;rounded=0;exitX=0.176;exitY=0.008;exitDx=0;exitDy=0;exitPerimeter=0;entryX=0.5;entryY=1;entryDx=0;entryDy=0;" parent="1" target="MmX11wm5HvuTR1FrTXqp-655" edge="1">
          <mxGeometry width="50" height="50" relative="1" as="geometry">
            <mxPoint x="547.4700000000001" y="703.98" as="sourcePoint" />
            <mxPoint x="545.43" y="669" as="targetPoint" />
          </mxGeometry>
        </mxCell>
        <mxCell id="MmX11wm5HvuTR1FrTXqp-659" value="" style="endArrow=none;html=1;rounded=0;entryX=0.5;entryY=1;entryDx=0;entryDy=0;exitX=0.782;exitY=0.008;exitDx=0;exitDy=0;exitPerimeter=0;" parent="1" target="MmX11wm5HvuTR1FrTXqp-656" edge="1">
          <mxGeometry width="50" height="50" relative="1" as="geometry">
            <mxPoint x="608.07" y="703.98" as="sourcePoint" />
            <mxPoint x="603.8499999999998" y="677.9599999999997" as="targetPoint" />
          </mxGeometry>
        </mxCell>
        <mxCell id="0EHpkeUix3jVTKtLxYQo-9" style="edgeStyle=orthogonalEdgeStyle;rounded=0;orthogonalLoop=1;jettySize=auto;html=1;exitX=0;exitY=0.5;exitDx=0;exitDy=0;entryX=1;entryY=0.5;entryDx=0;entryDy=0;" parent="1" source="MmX11wm5HvuTR1FrTXqp-678" target="0EHpkeUix3jVTKtLxYQo-7" edge="1">
          <mxGeometry relative="1" as="geometry" />
        </mxCell>
        <mxCell id="MmX11wm5HvuTR1FrTXqp-678" value="&amp;nbsp; &amp;nbsp;Us-Act" style="shape=rhombus;perimeter=rhombusPerimeter;whiteSpace=wrap;html=1;align=left;fontStyle=1;fontSize=10;" parent="1" vertex="1">
          <mxGeometry x="1285.51" y="1019.8299999999999" width="60" height="60" as="geometry" />
        </mxCell>
        <mxCell id="MmX11wm5HvuTR1FrTXqp-679" value="N:1" style="text;html=1;strokeColor=none;fillColor=none;align=center;verticalAlign=middle;whiteSpace=wrap;rounded=0;fontSize=15;fontStyle=1" parent="1" vertex="1">
          <mxGeometry x="1305.3" y="997.9499999999998" width="22.43" height="20" as="geometry" />
        </mxCell>
        <mxCell id="MmX11wm5HvuTR1FrTXqp-682" style="edgeStyle=orthogonalEdgeStyle;rounded=0;orthogonalLoop=1;jettySize=auto;html=1;exitX=1;exitY=0.5;exitDx=0;exitDy=0;entryX=0;entryY=0.5;entryDx=0;entryDy=0;" parent="1" source="MmX11wm5HvuTR1FrTXqp-680" target="MmX11wm5HvuTR1FrTXqp-278" edge="1">
          <mxGeometry relative="1" as="geometry" />
        </mxCell>
        <mxCell id="MmX11wm5HvuTR1FrTXqp-680" value="ID" style="text;html=1;strokeColor=none;fillColor=none;align=center;verticalAlign=middle;whiteSpace=wrap;rounded=0;fontSize=8;fontStyle=1" parent="1" vertex="1">
          <mxGeometry x="1331.05" y="1039.9499999999998" width="12.43" height="20" as="geometry" />
        </mxCell>
        <mxCell id="MmX11wm5HvuTR1FrTXqp-681" value="" style="endArrow=none;html=1;rounded=0;exitX=0;exitY=0;exitDx=0;exitDy=0;entryX=0;entryY=1;entryDx=0;entryDy=0;" parent="1" edge="1">
          <mxGeometry width="50" height="50" relative="1" as="geometry">
            <mxPoint x="1330.51" y="1034.83" as="sourcePoint" />
            <mxPoint x="1330.51" y="1064.8300000000004" as="targetPoint" />
          </mxGeometry>
        </mxCell>
        <mxCell id="MmX11wm5HvuTR1FrTXqp-689" value="Responsables&lt;br&gt;Comisión" style="shape=ext;margin=3;double=1;whiteSpace=wrap;html=1;align=center;" parent="1" vertex="1">
          <mxGeometry x="1232" y="704.8599999999999" width="100" height="60" as="geometry" />
        </mxCell>
        <mxCell id="MmX11wm5HvuTR1FrTXqp-694" value="fechaInicio" style="text;html=1;strokeColor=none;fillColor=none;align=left;verticalAlign=middle;whiteSpace=wrap;rounded=0;fontSize=9;" parent="1" vertex="1">
          <mxGeometry x="906.3399999999999" y="656.9999999999999" width="65" height="12.5" as="geometry" />
        </mxCell>
        <mxCell id="MmX11wm5HvuTR1FrTXqp-695" value="" style="ellipse;whiteSpace=wrap;html=1;aspect=fixed;fillColor=#FFFFFF;strokeColor=#000000;fontColor=#000000;" parent="1" vertex="1">
          <mxGeometry x="926.28" y="670.5000000000001" width="11" height="11" as="geometry" />
        </mxCell>
        <mxCell id="MmX11wm5HvuTR1FrTXqp-696" value="" style="ellipse;whiteSpace=wrap;html=1;aspect=fixed;fillColor=#FFFFFF;strokeColor=#000000;fontColor=#000000;" parent="1" vertex="1">
          <mxGeometry x="987.1700000000001" y="671.2500000000001" width="11" height="11" as="geometry" />
        </mxCell>
        <mxCell id="MmX11wm5HvuTR1FrTXqp-697" value="fechaFin" style="text;html=1;strokeColor=none;fillColor=none;align=left;verticalAlign=middle;whiteSpace=wrap;rounded=0;fontSize=9;" parent="1" vertex="1">
          <mxGeometry x="972.28" y="657" width="45.06" height="12.5" as="geometry" />
        </mxCell>
        <mxCell id="MmX11wm5HvuTR1FrTXqp-698" value="" style="endArrow=none;html=1;rounded=0;exitX=0.176;exitY=0.008;exitDx=0;exitDy=0;exitPerimeter=0;entryX=0.5;entryY=1;entryDx=0;entryDy=0;" parent="1" target="MmX11wm5HvuTR1FrTXqp-695" edge="1">
          <mxGeometry width="50" height="50" relative="1" as="geometry">
            <mxPoint x="931.3800000000001" y="701.98" as="sourcePoint" />
            <mxPoint x="929.3399999999999" y="667" as="targetPoint" />
          </mxGeometry>
        </mxCell>
        <mxCell id="MmX11wm5HvuTR1FrTXqp-699" value="" style="endArrow=none;html=1;rounded=0;entryX=0.5;entryY=1;entryDx=0;entryDy=0;exitX=0.782;exitY=0.008;exitDx=0;exitDy=0;exitPerimeter=0;" parent="1" target="MmX11wm5HvuTR1FrTXqp-696" edge="1">
          <mxGeometry width="50" height="50" relative="1" as="geometry">
            <mxPoint x="991.98" y="701.98" as="sourcePoint" />
            <mxPoint x="987.7599999999998" y="675.9599999999997" as="targetPoint" />
          </mxGeometry>
        </mxCell>
        <mxCell id="MmX11wm5HvuTR1FrTXqp-712" style="edgeStyle=orthogonalEdgeStyle;rounded=0;orthogonalLoop=1;jettySize=auto;html=1;exitX=1;exitY=0.5;exitDx=0;exitDy=0;entryX=0;entryY=0.5;entryDx=0;entryDy=0;" parent="1" source="MmX11wm5HvuTR1FrTXqp-706" target="MmX11wm5HvuTR1FrTXqp-689" edge="1">
          <mxGeometry relative="1" as="geometry" />
        </mxCell>
        <mxCell id="MmX11wm5HvuTR1FrTXqp-706" value="" style="triangle;whiteSpace=wrap;html=1;rotation=-90;direction=south;" parent="1" vertex="1">
          <mxGeometry x="1109.0000000000002" y="718.9999999999999" width="46" height="30" as="geometry" />
        </mxCell>
        <mxCell id="yooLV80YAIJDi9W8emZc-42" value="" style="edgeStyle=orthogonalEdgeStyle;rounded=0;orthogonalLoop=1;jettySize=auto;html=1;exitX=0;exitY=0.5;exitDx=0;exitDy=0;" parent="1" source="MmX11wm5HvuTR1FrTXqp-706" target="yooLV80YAIJDi9W8emZc-2" edge="1">
          <mxGeometry relative="1" as="geometry">
            <mxPoint x="1080" y="735" as="sourcePoint" />
          </mxGeometry>
        </mxCell>
        <mxCell id="MmX11wm5HvuTR1FrTXqp-707" value="ES_UN" style="text;html=1;strokeColor=none;fillColor=none;align=center;verticalAlign=middle;whiteSpace=wrap;rounded=0;fontSize=8;direction=south;" parent="1" vertex="1">
          <mxGeometry x="1125.6250000000002" y="719.7449999999998" width="10.75" height="30" as="geometry" />
        </mxCell>
        <mxCell id="MmX11wm5HvuTR1FrTXqp-715" value="Profesorado, PAS, Alumno..." style="text;html=1;strokeColor=none;fillColor=none;align=center;verticalAlign=middle;whiteSpace=wrap;rounded=0;" parent="1" vertex="1">
          <mxGeometry x="58" y="961.6200000000001" width="160" height="30" as="geometry" />
        </mxCell>
        <mxCell id="MmX11wm5HvuTR1FrTXqp-716" value="Parcial, solapada" style="text;html=1;strokeColor=none;fillColor=none;align=center;verticalAlign=middle;whiteSpace=wrap;rounded=0;" parent="1" vertex="1">
          <mxGeometry x="362.20000000000016" y="836.7500000000001" width="160" height="30" as="geometry" />
        </mxCell>
        <mxCell id="yooLV80YAIJDi9W8emZc-1" value="Miembros&lt;br&gt;Junta" style="shape=ext;margin=3;double=1;whiteSpace=wrap;html=1;align=center;" parent="1" vertex="1">
          <mxGeometry x="723.5099999999998" y="704" width="100" height="60" as="geometry" />
        </mxCell>
        <mxCell id="yooLV80YAIJDi9W8emZc-2" value="Miembros&lt;br&gt;Comisión" style="shape=ext;margin=3;double=1;whiteSpace=wrap;html=1;align=center;" parent="1" vertex="1">
          <mxGeometry x="902.29" y="701.98" width="120" height="65" as="geometry" />
        </mxCell>
        <mxCell id="yooLV80YAIJDi9W8emZc-30" style="edgeStyle=orthogonalEdgeStyle;rounded=0;orthogonalLoop=1;jettySize=auto;html=1;exitX=0.5;exitY=1;exitDx=0;exitDy=0;entryX=0.5;entryY=0;entryDx=0;entryDy=0;" parent="1" source="yooLV80YAIJDi9W8emZc-9" target="yooLV80YAIJDi9W8emZc-1" edge="1">
          <mxGeometry relative="1" as="geometry" />
        </mxCell>
        <mxCell id="yooLV80YAIJDi9W8emZc-9" value="MiJu-&lt;br&gt;Ju" style="shape=rhombus;perimeter=rhombusPerimeter;whiteSpace=wrap;html=1;align=center;fontStyle=1;fontSize=10;" parent="1" vertex="1">
          <mxGeometry x="743.51" y="579.25" width="60" height="60" as="geometry" />
        </mxCell>
        <mxCell id="0EHpkeUix3jVTKtLxYQo-19" style="edgeStyle=orthogonalEdgeStyle;rounded=0;orthogonalLoop=1;jettySize=auto;html=1;exitX=0.25;exitY=0;exitDx=0;exitDy=0;entryX=0;entryY=1;entryDx=0;entryDy=0;" parent="1" source="yooLV80YAIJDi9W8emZc-11" target="MmX11wm5HvuTR1FrTXqp-202" edge="1">
          <mxGeometry relative="1" as="geometry">
            <mxPoint x="1090" y="380" as="targetPoint" />
            <Array as="points">
              <mxPoint x="770" y="378" />
            </Array>
          </mxGeometry>
        </mxCell>
        <mxCell id="yooLV80YAIJDi9W8emZc-11" value="ID" style="text;html=1;strokeColor=none;fillColor=none;align=center;verticalAlign=middle;whiteSpace=wrap;rounded=0;fontSize=8;fontStyle=1" parent="1" vertex="1">
          <mxGeometry x="767.29" y="579.37" width="12.43" height="20" as="geometry" />
        </mxCell>
        <mxCell id="yooLV80YAIJDi9W8emZc-12" value="" style="endArrow=none;html=1;rounded=0;exitX=1;exitY=0;exitDx=0;exitDy=0;entryX=0;entryY=0;entryDx=0;entryDy=0;" parent="1" source="yooLV80YAIJDi9W8emZc-9" target="yooLV80YAIJDi9W8emZc-9" edge="1">
          <mxGeometry width="50" height="50" relative="1" as="geometry">
            <mxPoint x="653.51" y="599.62" as="sourcePoint" />
            <mxPoint x="703.51" y="549.62" as="targetPoint" />
          </mxGeometry>
        </mxCell>
        <mxCell id="yooLV80YAIJDi9W8emZc-31" style="edgeStyle=orthogonalEdgeStyle;rounded=0;orthogonalLoop=1;jettySize=auto;html=1;exitX=0.5;exitY=1;exitDx=0;exitDy=0;entryX=0.5;entryY=0;entryDx=0;entryDy=0;" parent="1" source="yooLV80YAIJDi9W8emZc-15" target="yooLV80YAIJDi9W8emZc-2" edge="1">
          <mxGeometry relative="1" as="geometry" />
        </mxCell>
        <mxCell id="yooLV80YAIJDi9W8emZc-34" style="edgeStyle=orthogonalEdgeStyle;rounded=0;orthogonalLoop=1;jettySize=auto;html=1;exitX=0.5;exitY=0;exitDx=0;exitDy=0;entryX=0;entryY=0.5;entryDx=0;entryDy=0;startArrow=none;" parent="1" source="yooLV80YAIJDi9W8emZc-15" target="MmX11wm5HvuTR1FrTXqp-235" edge="1">
          <mxGeometry relative="1" as="geometry" />
        </mxCell>
        <mxCell id="yooLV80YAIJDi9W8emZc-15" value="MiCom-&lt;br&gt;Com" style="shape=rhombus;perimeter=rhombusPerimeter;whiteSpace=wrap;html=1;align=center;fontStyle=1;fontSize=10;" parent="1" vertex="1">
          <mxGeometry x="931.8399999999999" y="582.25" width="60" height="60" as="geometry" />
        </mxCell>
        <mxCell id="yooLV80YAIJDi9W8emZc-17" value="ID" style="text;html=1;strokeColor=none;fillColor=none;align=center;verticalAlign=middle;whiteSpace=wrap;rounded=0;fontSize=8;fontStyle=1" parent="1" vertex="1">
          <mxGeometry x="955.6299999999999" y="582.25" width="12.43" height="20" as="geometry" />
        </mxCell>
        <mxCell id="yooLV80YAIJDi9W8emZc-18" value="" style="endArrow=none;html=1;rounded=0;exitX=1;exitY=0;exitDx=0;exitDy=0;entryX=0;entryY=0;entryDx=0;entryDy=0;" parent="1" source="yooLV80YAIJDi9W8emZc-15" target="yooLV80YAIJDi9W8emZc-15" edge="1">
          <mxGeometry width="50" height="50" relative="1" as="geometry">
            <mxPoint x="841.84" y="602.62" as="sourcePoint" />
            <mxPoint x="891.8399999999999" y="552.62" as="targetPoint" />
          </mxGeometry>
        </mxCell>
        <mxCell id="yooLV80YAIJDi9W8emZc-29" style="edgeStyle=orthogonalEdgeStyle;rounded=0;orthogonalLoop=1;jettySize=auto;html=1;exitX=0.5;exitY=1;exitDx=0;exitDy=0;entryX=1;entryY=0.25;entryDx=0;entryDy=0;" parent="1" source="yooLV80YAIJDi9W8emZc-19" target="MmX11wm5HvuTR1FrTXqp-397" edge="1">
          <mxGeometry relative="1" as="geometry" />
        </mxCell>
        <mxCell id="yooLV80YAIJDi9W8emZc-32" style="edgeStyle=orthogonalEdgeStyle;rounded=0;orthogonalLoop=1;jettySize=auto;html=1;exitX=0.5;exitY=0;exitDx=0;exitDy=0;entryX=0.5;entryY=1;entryDx=0;entryDy=0;" parent="1" source="yooLV80YAIJDi9W8emZc-19" target="yooLV80YAIJDi9W8emZc-1" edge="1">
          <mxGeometry relative="1" as="geometry" />
        </mxCell>
        <mxCell id="yooLV80YAIJDi9W8emZc-19" value="&amp;nbsp; &amp;nbsp;Usu-&lt;br&gt;MiJu" style="shape=rhombus;perimeter=rhombusPerimeter;whiteSpace=wrap;html=1;align=center;fontStyle=1;fontSize=10;" parent="1" vertex="1">
          <mxGeometry x="743.51" y="861.75" width="60" height="60" as="geometry" />
        </mxCell>
        <mxCell id="yooLV80YAIJDi9W8emZc-20" value="1:N" style="text;html=1;strokeColor=none;fillColor=none;align=center;verticalAlign=middle;whiteSpace=wrap;rounded=0;fontSize=15;fontStyle=1;rotation=90;" parent="1" vertex="1">
          <mxGeometry x="806.6299999999999" y="881" width="22.43" height="20" as="geometry" />
        </mxCell>
        <mxCell id="yooLV80YAIJDi9W8emZc-21" value="E" style="text;html=1;strokeColor=none;fillColor=none;align=center;verticalAlign=middle;whiteSpace=wrap;rounded=0;fontSize=8;fontStyle=1" parent="1" vertex="1">
          <mxGeometry x="746.05" y="881.87" width="12.43" height="20" as="geometry" />
        </mxCell>
        <mxCell id="yooLV80YAIJDi9W8emZc-22" value="" style="endArrow=none;html=1;rounded=0;exitX=0;exitY=0;exitDx=0;exitDy=0;entryX=0;entryY=1;entryDx=0;entryDy=0;" parent="1" source="yooLV80YAIJDi9W8emZc-19" target="yooLV80YAIJDi9W8emZc-19" edge="1">
          <mxGeometry width="50" height="50" relative="1" as="geometry">
            <mxPoint x="653.51" y="882.12" as="sourcePoint" />
            <mxPoint x="703.51" y="832.12" as="targetPoint" />
          </mxGeometry>
        </mxCell>
        <mxCell id="yooLV80YAIJDi9W8emZc-27" style="edgeStyle=orthogonalEdgeStyle;rounded=0;orthogonalLoop=1;jettySize=auto;html=1;exitX=0.5;exitY=1;exitDx=0;exitDy=0;entryX=1;entryY=0.5;entryDx=0;entryDy=0;" parent="1" source="yooLV80YAIJDi9W8emZc-23" target="MmX11wm5HvuTR1FrTXqp-397" edge="1">
          <mxGeometry relative="1" as="geometry" />
        </mxCell>
        <mxCell id="yooLV80YAIJDi9W8emZc-33" style="edgeStyle=orthogonalEdgeStyle;rounded=0;orthogonalLoop=1;jettySize=auto;html=1;exitX=0.5;exitY=0;exitDx=0;exitDy=0;entryX=0.5;entryY=1;entryDx=0;entryDy=0;" parent="1" source="yooLV80YAIJDi9W8emZc-23" target="yooLV80YAIJDi9W8emZc-2" edge="1">
          <mxGeometry relative="1" as="geometry" />
        </mxCell>
        <mxCell id="yooLV80YAIJDi9W8emZc-23" value="Usu-&lt;br&gt;MiCom" style="shape=rhombus;perimeter=rhombusPerimeter;whiteSpace=wrap;html=1;align=center;fontStyle=1;fontSize=10;" parent="1" vertex="1">
          <mxGeometry x="931.8399999999999" y="861.75" width="60" height="60" as="geometry" />
        </mxCell>
        <mxCell id="yooLV80YAIJDi9W8emZc-24" value="1:N" style="text;html=1;strokeColor=none;fillColor=none;align=center;verticalAlign=middle;whiteSpace=wrap;rounded=0;fontSize=15;fontStyle=1;rotation=90;" parent="1" vertex="1">
          <mxGeometry x="995.5299999999999" y="882.24" width="22.43" height="20" as="geometry" />
        </mxCell>
        <mxCell id="yooLV80YAIJDi9W8emZc-25" value="E" style="text;html=1;strokeColor=none;fillColor=none;align=center;verticalAlign=middle;whiteSpace=wrap;rounded=0;fontSize=8;fontStyle=1" parent="1" vertex="1">
          <mxGeometry x="934.3799999999999" y="881.87" width="12.43" height="20" as="geometry" />
        </mxCell>
        <mxCell id="yooLV80YAIJDi9W8emZc-26" value="" style="endArrow=none;html=1;rounded=0;exitX=0;exitY=0;exitDx=0;exitDy=0;entryX=0;entryY=1;entryDx=0;entryDy=0;" parent="1" source="yooLV80YAIJDi9W8emZc-23" target="yooLV80YAIJDi9W8emZc-23" edge="1">
          <mxGeometry width="50" height="50" relative="1" as="geometry">
            <mxPoint x="841.84" y="882.12" as="sourcePoint" />
            <mxPoint x="891.8399999999999" y="832.12" as="targetPoint" />
          </mxGeometry>
        </mxCell>
        <mxCell id="yooLV80YAIJDi9W8emZc-36" value="fechaInicio" style="text;html=1;strokeColor=none;fillColor=none;align=left;verticalAlign=middle;whiteSpace=wrap;rounded=0;fontSize=9;" parent="1" vertex="1">
          <mxGeometry x="718.0099999999999" y="659.4999999999999" width="65" height="12.5" as="geometry" />
        </mxCell>
        <mxCell id="yooLV80YAIJDi9W8emZc-37" value="" style="ellipse;whiteSpace=wrap;html=1;aspect=fixed;fillColor=#FFFFFF;strokeColor=#000000;fontColor=#000000;" parent="1" vertex="1">
          <mxGeometry x="737.9499999999999" y="673.0000000000001" width="11" height="11" as="geometry" />
        </mxCell>
        <mxCell id="yooLV80YAIJDi9W8emZc-38" value="" style="ellipse;whiteSpace=wrap;html=1;aspect=fixed;fillColor=#FFFFFF;strokeColor=#000000;fontColor=#000000;" parent="1" vertex="1">
          <mxGeometry x="798.84" y="673.7500000000001" width="11" height="11" as="geometry" />
        </mxCell>
        <mxCell id="yooLV80YAIJDi9W8emZc-39" value="fechaFin" style="text;html=1;strokeColor=none;fillColor=none;align=left;verticalAlign=middle;whiteSpace=wrap;rounded=0;fontSize=9;" parent="1" vertex="1">
          <mxGeometry x="783.9499999999999" y="659.5" width="45.06" height="12.5" as="geometry" />
        </mxCell>
        <mxCell id="yooLV80YAIJDi9W8emZc-40" value="" style="endArrow=none;html=1;rounded=0;exitX=0.176;exitY=0.008;exitDx=0;exitDy=0;exitPerimeter=0;entryX=0.5;entryY=1;entryDx=0;entryDy=0;" parent="1" target="yooLV80YAIJDi9W8emZc-37" edge="1">
          <mxGeometry width="50" height="50" relative="1" as="geometry">
            <mxPoint x="743.0500000000001" y="704.48" as="sourcePoint" />
            <mxPoint x="741.0099999999999" y="669.5" as="targetPoint" />
          </mxGeometry>
        </mxCell>
        <mxCell id="yooLV80YAIJDi9W8emZc-41" value="" style="endArrow=none;html=1;rounded=0;entryX=0.5;entryY=1;entryDx=0;entryDy=0;exitX=0.782;exitY=0.008;exitDx=0;exitDy=0;exitPerimeter=0;" parent="1" target="yooLV80YAIJDi9W8emZc-38" edge="1">
          <mxGeometry width="50" height="50" relative="1" as="geometry">
            <mxPoint x="803.65" y="704.48" as="sourcePoint" />
            <mxPoint x="799.4299999999997" y="678.4599999999997" as="targetPoint" />
          </mxGeometry>
        </mxCell>
        <mxCell id="yooLV80YAIJDi9W8emZc-49" value="idJunta" style="text;html=1;strokeColor=none;fillColor=none;align=left;verticalAlign=middle;whiteSpace=wrap;rounded=0;fontSize=9;" parent="1" vertex="1">
          <mxGeometry x="658.48" y="731.48" width="28.52" height="10" as="geometry" />
        </mxCell>
        <mxCell id="yooLV80YAIJDi9W8emZc-50" value="idUsuario" style="text;html=1;strokeColor=none;fillColor=none;align=left;verticalAlign=middle;whiteSpace=wrap;rounded=0;fontSize=9;" parent="1" vertex="1">
          <mxGeometry x="654.48" y="716.1" width="35.52" height="9.38" as="geometry" />
        </mxCell>
        <mxCell id="yooLV80YAIJDi9W8emZc-58" style="edgeStyle=orthogonalEdgeStyle;rounded=0;orthogonalLoop=1;jettySize=auto;html=1;exitX=1;exitY=0.5;exitDx=0;exitDy=0;entryX=0.002;entryY=0.34;entryDx=0;entryDy=0;entryPerimeter=0;fontColor=#B3B3B3;endArrow=none;endFill=0;" parent="1" source="yooLV80YAIJDi9W8emZc-52" target="yooLV80YAIJDi9W8emZc-1" edge="1">
          <mxGeometry relative="1" as="geometry" />
        </mxCell>
        <mxCell id="yooLV80YAIJDi9W8emZc-52" value="" style="ellipse;whiteSpace=wrap;html=1;aspect=fixed;fillColor=#B3B3B3;strokeColor=#000000;fontColor=#000000;" parent="1" vertex="1">
          <mxGeometry x="699.2199999999998" y="717.1000000000001" width="11" height="11" as="geometry" />
        </mxCell>
        <mxCell id="yooLV80YAIJDi9W8emZc-60" style="edgeStyle=orthogonalEdgeStyle;rounded=0;orthogonalLoop=1;jettySize=auto;html=1;exitX=1;exitY=0.5;exitDx=0;exitDy=0;entryX=0.002;entryY=0.585;entryDx=0;entryDy=0;entryPerimeter=0;fontColor=#B3B3B3;endArrow=none;endFill=0;" parent="1" source="yooLV80YAIJDi9W8emZc-54" target="yooLV80YAIJDi9W8emZc-1" edge="1">
          <mxGeometry relative="1" as="geometry" />
        </mxCell>
        <mxCell id="yooLV80YAIJDi9W8emZc-54" value="" style="ellipse;whiteSpace=wrap;html=1;aspect=fixed;fillColor=#B3B3B3;strokeColor=#000000;fontColor=#000000;" parent="1" vertex="1">
          <mxGeometry x="699.48" y="733.1000000000001" width="11" height="11" as="geometry" />
        </mxCell>
        <mxCell id="yooLV80YAIJDi9W8emZc-61" value="idComisión" style="text;html=1;strokeColor=none;fillColor=none;align=left;verticalAlign=middle;whiteSpace=wrap;rounded=0;fontSize=9;" parent="1" vertex="1">
          <mxGeometry x="829.0600000000001" y="732.48" width="28.52" height="10" as="geometry" />
        </mxCell>
        <mxCell id="yooLV80YAIJDi9W8emZc-62" value="idUsuario" style="text;html=1;strokeColor=none;fillColor=none;align=left;verticalAlign=middle;whiteSpace=wrap;rounded=0;fontSize=9;" parent="1" vertex="1">
          <mxGeometry x="833.0600000000001" y="717.1" width="35.52" height="9.38" as="geometry" />
        </mxCell>
        <mxCell id="yooLV80YAIJDi9W8emZc-63" style="edgeStyle=orthogonalEdgeStyle;rounded=0;orthogonalLoop=1;jettySize=auto;html=1;exitX=1;exitY=0.5;exitDx=0;exitDy=0;entryX=0.002;entryY=0.34;entryDx=0;entryDy=0;entryPerimeter=0;fontColor=#B3B3B3;endArrow=none;endFill=0;" parent="1" source="yooLV80YAIJDi9W8emZc-64" edge="1">
          <mxGeometry relative="1" as="geometry">
            <mxPoint x="902.2899999999997" y="725.4" as="targetPoint" />
          </mxGeometry>
        </mxCell>
        <mxCell id="yooLV80YAIJDi9W8emZc-64" value="" style="ellipse;whiteSpace=wrap;html=1;aspect=fixed;fillColor=#B3B3B3;strokeColor=#000000;fontColor=#000000;" parent="1" vertex="1">
          <mxGeometry x="877.7999999999997" y="718.1000000000001" width="11" height="11" as="geometry" />
        </mxCell>
        <mxCell id="yooLV80YAIJDi9W8emZc-65" style="edgeStyle=orthogonalEdgeStyle;rounded=0;orthogonalLoop=1;jettySize=auto;html=1;exitX=1;exitY=0.5;exitDx=0;exitDy=0;entryX=0.002;entryY=0.585;entryDx=0;entryDy=0;entryPerimeter=0;fontColor=#B3B3B3;endArrow=none;endFill=0;" parent="1" source="yooLV80YAIJDi9W8emZc-66" edge="1">
          <mxGeometry relative="1" as="geometry">
            <mxPoint x="902.2899999999997" y="740.0999999999999" as="targetPoint" />
          </mxGeometry>
        </mxCell>
        <mxCell id="yooLV80YAIJDi9W8emZc-66" value="" style="ellipse;whiteSpace=wrap;html=1;aspect=fixed;fillColor=#B3B3B3;strokeColor=#000000;fontColor=#000000;" parent="1" vertex="1">
          <mxGeometry x="878.06" y="734.1000000000001" width="11" height="11" as="geometry" />
        </mxCell>
        <mxCell id="yooLV80YAIJDi9W8emZc-67" value="" style="edgeStyle=none;rounded=0;orthogonalLoop=1;jettySize=auto;html=1;endArrow=none;endFill=0;exitX=0.5;exitY=0;exitDx=0;exitDy=0;" parent="1" source="yooLV80YAIJDi9W8emZc-68" edge="1">
          <mxGeometry relative="1" as="geometry">
            <mxPoint x="1269.25" y="776.7299999999998" as="sourcePoint" />
            <mxPoint x="1269" y="763.7299999999998" as="targetPoint" />
          </mxGeometry>
        </mxCell>
        <mxCell id="yooLV80YAIJDi9W8emZc-68" value="" style="ellipse;whiteSpace=wrap;html=1;aspect=fixed;fillColor=#CCCCCC;strokeColor=#000000;fontColor=#000000;" parent="1" vertex="1">
          <mxGeometry x="1263.75" y="781.7299999999998" width="11" height="11" as="geometry" />
        </mxCell>
        <mxCell id="yooLV80YAIJDi9W8emZc-69" value="id" style="text;html=1;strokeColor=none;fillColor=none;align=left;verticalAlign=middle;whiteSpace=wrap;rounded=0;fontSize=9;" parent="1" vertex="1">
          <mxGeometry x="1279.5" y="782.4799999999998" width="48.5" height="11.75" as="geometry" />
        </mxCell>
        <mxCell id="yooLV80YAIJDi9W8emZc-70" value="responsable" style="text;html=1;strokeColor=none;fillColor=none;align=left;verticalAlign=middle;whiteSpace=wrap;rounded=0;fontSize=9;" parent="1" vertex="1">
          <mxGeometry x="1131.5000000000002" y="773.3699999999999" width="21" height="12.5" as="geometry" />
        </mxCell>
        <mxCell id="yooLV80YAIJDi9W8emZc-71" value="" style="endArrow=none;html=1;rounded=0;entryX=0.5;entryY=0;entryDx=0;entryDy=0;exitX=0.174;exitY=0.907;exitDx=0;exitDy=0;exitPerimeter=0;" parent="1" source="MmX11wm5HvuTR1FrTXqp-706" target="yooLV80YAIJDi9W8emZc-72" edge="1">
          <mxGeometry width="50" height="50" relative="1" as="geometry">
            <mxPoint x="1128" y="750" as="sourcePoint" />
            <mxPoint x="1117.63" y="763.6199999999999" as="targetPoint" />
          </mxGeometry>
        </mxCell>
        <mxCell id="yooLV80YAIJDi9W8emZc-72" value="" style="ellipse;whiteSpace=wrap;html=1;aspect=fixed;fillColor=#FFFFFF;strokeColor=#000000;fontColor=#000000;" parent="1" vertex="1">
          <mxGeometry x="1116.97" y="773.3699999999999" width="11" height="11" as="geometry" />
        </mxCell>
        <mxCell id="_VbOPjBLyvqnEfAaVFIH-1" value="Centros" style="whiteSpace=wrap;html=1;align=center;points=[[0,0,0,0,0],[0,0.25,0,0,0],[0,0.5,0,0,0],[0,0.75,0,0,0],[0,1,0,0,0],[0.12,0,0,0,0],[0.25,0,0,0,0],[0.25,1,0,0,0],[0.38,0,0,0,0],[0.5,0,0,0,0],[0.5,1,0,0,0],[0.63,0,0,0,0],[0.75,0,0,0,0],[0.75,1,0,0,0],[0.88,0,0,0,0],[1,0,0,0,0],[1,0.25,0,0,0],[1,0.5,0,0,0],[1,0.75,0,0,0],[1,1,0,0,0]];" parent="1" vertex="1">
          <mxGeometry x="1526.5" y="303.44" width="100" height="60" as="geometry" />
        </mxCell>
        <mxCell id="_VbOPjBLyvqnEfAaVFIH-25" value="" style="edgeStyle=orthogonalEdgeStyle;rounded=0;orthogonalLoop=1;jettySize=auto;html=1;" parent="1" source="_VbOPjBLyvqnEfAaVFIH-2" target="_VbOPjBLyvqnEfAaVFIH-1" edge="1">
          <mxGeometry relative="1" as="geometry" />
        </mxCell>
        <mxCell id="_VbOPjBLyvqnEfAaVFIH-26" value="" style="edgeStyle=orthogonalEdgeStyle;rounded=0;orthogonalLoop=1;jettySize=auto;html=1;entryX=1;entryY=0.25;entryDx=0;entryDy=0;" parent="1" source="_VbOPjBLyvqnEfAaVFIH-2" target="MmX11wm5HvuTR1FrTXqp-202" edge="1">
          <mxGeometry relative="1" as="geometry">
            <mxPoint x="1277" y="320" as="targetPoint" />
          </mxGeometry>
        </mxCell>
        <mxCell id="_VbOPjBLyvqnEfAaVFIH-2" value="&amp;nbsp; &amp;nbsp;Ju-Ct" style="shape=rhombus;perimeter=rhombusPerimeter;whiteSpace=wrap;html=1;align=left;fontStyle=1;fontSize=10;" parent="1" vertex="1">
          <mxGeometry x="1348.1399999999999" y="302.56" width="60" height="60" as="geometry" />
        </mxCell>
        <mxCell id="_VbOPjBLyvqnEfAaVFIH-4" value="N:1" style="text;html=1;strokeColor=none;fillColor=none;align=center;verticalAlign=middle;whiteSpace=wrap;rounded=0;fontSize=15;fontStyle=1" parent="1" vertex="1">
          <mxGeometry x="1366.9299999999998" y="280.68" width="22.43" height="20" as="geometry" />
        </mxCell>
        <mxCell id="_VbOPjBLyvqnEfAaVFIH-5" value="(1,1)" style="text;html=1;strokeColor=none;fillColor=none;align=left;verticalAlign=middle;whiteSpace=wrap;rounded=0;fontSize=9;" parent="1" vertex="1">
          <mxGeometry x="1490.51" y="316.37" width="22.5" height="12.5" as="geometry" />
        </mxCell>
        <mxCell id="_VbOPjBLyvqnEfAaVFIH-6" value="gestiona" style="text;html=1;strokeColor=none;fillColor=none;align=left;verticalAlign=middle;whiteSpace=wrap;rounded=0;fontSize=9;" parent="1" vertex="1">
          <mxGeometry x="1482.51" y="335.37" width="50" height="12.5" as="geometry" />
        </mxCell>
        <mxCell id="_VbOPjBLyvqnEfAaVFIH-7" value="nombre" style="text;html=1;strokeColor=none;fillColor=none;align=left;verticalAlign=middle;whiteSpace=wrap;rounded=0;fontSize=9;" parent="1" vertex="1">
          <mxGeometry x="1549" y="237.44" width="37.5" height="12.5" as="geometry" />
        </mxCell>
        <mxCell id="_VbOPjBLyvqnEfAaVFIH-8" value="dirección" style="text;html=1;strokeColor=none;fillColor=none;align=left;verticalAlign=middle;whiteSpace=wrap;rounded=0;fontSize=9;" parent="1" vertex="1">
          <mxGeometry x="1563" y="250.44" width="63.5" height="12.5" as="geometry" />
        </mxCell>
        <mxCell id="_VbOPjBLyvqnEfAaVFIH-9" value="tipo" style="text;html=1;strokeColor=none;fillColor=none;align=left;verticalAlign=middle;whiteSpace=wrap;rounded=0;fontSize=9;" parent="1" vertex="1">
          <mxGeometry x="1574" y="264.44" width="53.5" height="12.5" as="geometry" />
        </mxCell>
        <mxCell id="_VbOPjBLyvqnEfAaVFIH-10" value="" style="endArrow=none;html=1;rounded=0;fontSize=11;entryX=0.5;entryY=1;entryDx=0;entryDy=0;exitX=0;exitY=0;exitDx=0;exitDy=0;" parent="1" source="_VbOPjBLyvqnEfAaVFIH-1" target="_VbOPjBLyvqnEfAaVFIH-20" edge="1">
          <mxGeometry width="50" height="50" relative="1" as="geometry">
            <mxPoint x="1606.5" y="283.44" as="sourcePoint" />
            <mxPoint x="1619" y="190.94" as="targetPoint" />
          </mxGeometry>
        </mxCell>
        <mxCell id="_VbOPjBLyvqnEfAaVFIH-11" value="" style="endArrow=none;html=1;rounded=0;fontSize=11;entryX=0;entryY=0.5;entryDx=0;entryDy=0;exitX=0.25;exitY=0;exitDx=0;exitDy=0;startArrow=none;" parent="1" source="_VbOPjBLyvqnEfAaVFIH-23" edge="1">
          <mxGeometry width="50" height="50" relative="1" as="geometry">
            <mxPoint x="1536.5" y="326.44" as="sourcePoint" />
            <mxPoint x="1549" y="259.94" as="targetPoint" />
          </mxGeometry>
        </mxCell>
        <mxCell id="_VbOPjBLyvqnEfAaVFIH-12" value="" style="endArrow=none;html=1;rounded=0;fontSize=11;entryX=0.5;entryY=1;entryDx=0;entryDy=0;exitX=0.38;exitY=0;exitDx=0;exitDy=0;exitPerimeter=0;" parent="1" source="_VbOPjBLyvqnEfAaVFIH-1" target="_VbOPjBLyvqnEfAaVFIH-21" edge="1">
          <mxGeometry width="50" height="50" relative="1" as="geometry">
            <mxPoint x="1606.5" y="283.44" as="sourcePoint" />
            <mxPoint x="1619" y="229.69" as="targetPoint" />
          </mxGeometry>
        </mxCell>
        <mxCell id="_VbOPjBLyvqnEfAaVFIH-13" value="" style="endArrow=none;html=1;rounded=0;fontSize=11;entryX=0.5;entryY=1;entryDx=0;entryDy=0;exitX=0.5;exitY=0;exitDx=0;exitDy=0;" parent="1" source="_VbOPjBLyvqnEfAaVFIH-1" target="_VbOPjBLyvqnEfAaVFIH-22" edge="1">
          <mxGeometry width="50" height="50" relative="1" as="geometry">
            <mxPoint x="1606.5" y="283.44" as="sourcePoint" />
            <mxPoint x="1619" y="241.69" as="targetPoint" />
          </mxGeometry>
        </mxCell>
        <mxCell id="_VbOPjBLyvqnEfAaVFIH-14" value="" style="endArrow=none;html=1;rounded=0;fontSize=11;entryX=0.5;entryY=1;entryDx=0;entryDy=0;exitX=1;exitY=0;exitDx=0;exitDy=0;" parent="1" source="_VbOPjBLyvqnEfAaVFIH-1" edge="1">
          <mxGeometry width="50" height="50" relative="1" as="geometry">
            <mxPoint x="1606.5" y="283.44" as="sourcePoint" />
            <mxPoint x="1626.5" y="299.44" as="targetPoint" />
          </mxGeometry>
        </mxCell>
        <mxCell id="_VbOPjBLyvqnEfAaVFIH-15" value="EX" style="text;html=1;strokeColor=none;fillColor=none;align=center;verticalAlign=middle;whiteSpace=wrap;rounded=0;fontSize=8;fontStyle=1" parent="1" vertex="1">
          <mxGeometry x="1392.6799999999998" y="322.68" width="12.43" height="20" as="geometry" />
        </mxCell>
        <mxCell id="_VbOPjBLyvqnEfAaVFIH-16" value="" style="endArrow=none;html=1;rounded=0;exitX=0;exitY=0;exitDx=0;exitDy=0;entryX=0;entryY=1;entryDx=0;entryDy=0;" parent="1" edge="1">
          <mxGeometry width="50" height="50" relative="1" as="geometry">
            <mxPoint x="1393.14" y="317.55999999999995" as="sourcePoint" />
            <mxPoint x="1393.14" y="347.55999999999995" as="targetPoint" />
          </mxGeometry>
        </mxCell>
        <mxCell id="_VbOPjBLyvqnEfAaVFIH-17" value="id" style="text;html=1;strokeColor=none;fillColor=none;align=left;verticalAlign=middle;whiteSpace=wrap;rounded=0;fontSize=9;" parent="1" vertex="1">
          <mxGeometry x="1536" y="223.94" width="70.5" height="12.5" as="geometry" />
        </mxCell>
        <mxCell id="_VbOPjBLyvqnEfAaVFIH-18" value="" style="endArrow=none;html=1;rounded=0;fontSize=10;fontColor=#000000;strokeColor=#000000;exitX=0.12;exitY=0;exitDx=0;exitDy=0;entryX=0.5;entryY=1;entryDx=0;entryDy=0;exitPerimeter=0;" parent="1" source="_VbOPjBLyvqnEfAaVFIH-1" target="_VbOPjBLyvqnEfAaVFIH-19" edge="1">
          <mxGeometry width="50" height="50" relative="1" as="geometry">
            <mxPoint x="1606.5" y="323.44" as="sourcePoint" />
            <mxPoint x="1619" y="203.94" as="targetPoint" />
          </mxGeometry>
        </mxCell>
        <mxCell id="_VbOPjBLyvqnEfAaVFIH-19" value="" style="ellipse;whiteSpace=wrap;html=1;aspect=fixed;fillColor=#FFFFFF;strokeColor=#000000;fontColor=#000000;" parent="1" vertex="1">
          <mxGeometry x="1533" y="238.44" width="11" height="11" as="geometry" />
        </mxCell>
        <mxCell id="_VbOPjBLyvqnEfAaVFIH-20" value="" style="ellipse;whiteSpace=wrap;html=1;aspect=fixed;fillColor=#000000;strokeColor=#000000;fontColor=#000000;" parent="1" vertex="1">
          <mxGeometry x="1521" y="225.44" width="11" height="11" as="geometry" />
        </mxCell>
        <mxCell id="_VbOPjBLyvqnEfAaVFIH-21" value="" style="ellipse;whiteSpace=wrap;html=1;aspect=fixed;fillColor=#FFFFFF;strokeColor=#000000;fontColor=#000000;" parent="1" vertex="1">
          <mxGeometry x="1559" y="265.44" width="11" height="11" as="geometry" />
        </mxCell>
        <mxCell id="_VbOPjBLyvqnEfAaVFIH-22" value="" style="ellipse;whiteSpace=wrap;html=1;aspect=fixed;fillColor=#FFFFFF;strokeColor=#000000;fontColor=#000000;" parent="1" vertex="1">
          <mxGeometry x="1571" y="278.44" width="11" height="11" as="geometry" />
        </mxCell>
        <mxCell id="_VbOPjBLyvqnEfAaVFIH-23" value="" style="ellipse;whiteSpace=wrap;html=1;aspect=fixed;fillColor=#FFFFFF;strokeColor=#000000;fontColor=#000000;" parent="1" vertex="1">
          <mxGeometry x="1546" y="252.44" width="11" height="11" as="geometry" />
        </mxCell>
        <mxCell id="_VbOPjBLyvqnEfAaVFIH-24" value="" style="endArrow=none;html=1;rounded=0;fontSize=11;entryX=0.5;entryY=1;entryDx=0;entryDy=0;exitX=0.25;exitY=0;exitDx=0;exitDy=0;" parent="1" source="_VbOPjBLyvqnEfAaVFIH-1" target="_VbOPjBLyvqnEfAaVFIH-23" edge="1">
          <mxGeometry width="50" height="50" relative="1" as="geometry">
            <mxPoint x="1551.5" y="303.44" as="sourcePoint" />
            <mxPoint x="1619" y="216.94" as="targetPoint" />
          </mxGeometry>
        </mxCell>
        <mxCell id="_VbOPjBLyvqnEfAaVFIH-31" value="1:N" style="text;html=1;strokeColor=none;fillColor=none;align=center;verticalAlign=middle;whiteSpace=wrap;rounded=0;fontSize=15;fontStyle=1;direction=east;flipV=0;flipH=0;rotation=90;" parent="1" vertex="1">
          <mxGeometry x="991.8399999999999" y="602.49" width="22.5" height="15.75" as="geometry" />
        </mxCell>
        <mxCell id="_VbOPjBLyvqnEfAaVFIH-34" value="1:N" style="text;html=1;strokeColor=none;fillColor=none;align=center;verticalAlign=middle;whiteSpace=wrap;rounded=0;fontSize=15;fontStyle=1;direction=east;flipV=0;flipH=0;rotation=90;" parent="1" vertex="1">
          <mxGeometry x="806.5099999999999" y="599.37" width="22.5" height="15.75" as="geometry" />
        </mxCell>
        <mxCell id="_VbOPjBLyvqnEfAaVFIH-35" value="1:N" style="text;html=1;strokeColor=none;fillColor=none;align=center;verticalAlign=middle;whiteSpace=wrap;rounded=0;fontSize=15;fontStyle=1;rotation=90;" parent="1" vertex="1">
          <mxGeometry x="363.79999999999995" y="510.25" width="22.43" height="20" as="geometry" />
        </mxCell>
        <mxCell id="_VbOPjBLyvqnEfAaVFIH-36" value="1:N" style="text;html=1;strokeColor=none;fillColor=none;align=center;verticalAlign=middle;whiteSpace=wrap;rounded=0;fontSize=15;fontStyle=1;rotation=90;" parent="1" vertex="1">
          <mxGeometry x="489.11999999999995" y="511.25" width="22.43" height="20" as="geometry" />
        </mxCell>
        <mxCell id="_VbOPjBLyvqnEfAaVFIH-37" value="1:N" style="text;html=1;strokeColor=none;fillColor=none;align=center;verticalAlign=middle;whiteSpace=wrap;rounded=0;fontSize=15;fontStyle=1;rotation=90;" parent="1" vertex="1">
          <mxGeometry x="613.26" y="511.25" width="22.43" height="20" as="geometry" />
        </mxCell>
        <mxCell id="0EHpkeUix3jVTKtLxYQo-8" style="edgeStyle=orthogonalEdgeStyle;rounded=0;orthogonalLoop=1;jettySize=auto;html=1;exitX=1;exitY=0.5;exitDx=0;exitDy=0;entryX=0;entryY=0.5;entryDx=0;entryDy=0;" parent="1" source="0EHpkeUix3jVTKtLxYQo-3" target="0EHpkeUix3jVTKtLxYQo-7" edge="1">
          <mxGeometry relative="1" as="geometry" />
        </mxCell>
        <mxCell id="0EHpkeUix3jVTKtLxYQo-10" style="edgeStyle=orthogonalEdgeStyle;rounded=0;orthogonalLoop=1;jettySize=auto;html=1;exitX=0;exitY=0.5;exitDx=0;exitDy=0;entryX=1;entryY=0.75;entryDx=0;entryDy=0;" parent="1" source="0EHpkeUix3jVTKtLxYQo-3" target="MmX11wm5HvuTR1FrTXqp-397" edge="1">
          <mxGeometry relative="1" as="geometry" />
        </mxCell>
        <mxCell id="0EHpkeUix3jVTKtLxYQo-3" value="&amp;nbsp; &amp;nbsp; Us-Act" style="shape=rhombus;perimeter=rhombusPerimeter;whiteSpace=wrap;html=1;align=center;fontStyle=1;fontSize=10;" parent="1" vertex="1">
          <mxGeometry x="998.1700000000001" y="1019.51" width="60" height="60" as="geometry" />
        </mxCell>
        <mxCell id="0EHpkeUix3jVTKtLxYQo-4" value="1:N" style="text;html=1;strokeColor=none;fillColor=none;align=center;verticalAlign=middle;whiteSpace=wrap;rounded=0;fontSize=15;fontStyle=1" parent="1" vertex="1">
          <mxGeometry x="1017.9599999999999" y="997.6299999999998" width="22.43" height="20" as="geometry" />
        </mxCell>
        <mxCell id="0EHpkeUix3jVTKtLxYQo-5" value="ID" style="text;html=1;strokeColor=none;fillColor=none;align=center;verticalAlign=middle;whiteSpace=wrap;rounded=0;fontSize=8;fontStyle=1" parent="1" vertex="1">
          <mxGeometry x="1002.7099999999999" y="1039.6299999999999" width="12.43" height="20" as="geometry" />
        </mxCell>
        <mxCell id="0EHpkeUix3jVTKtLxYQo-6" value="" style="endArrow=none;html=1;rounded=0;exitX=0;exitY=0;exitDx=0;exitDy=0;entryX=0;entryY=1;entryDx=0;entryDy=0;" parent="1" edge="1">
          <mxGeometry width="50" height="50" relative="1" as="geometry">
            <mxPoint x="1013.1700000000002" y="1034.51" as="sourcePoint" />
            <mxPoint x="1013.1700000000002" y="1064.5100000000004" as="targetPoint" />
          </mxGeometry>
        </mxCell>
        <mxCell id="0EHpkeUix3jVTKtLxYQo-7" value="Asistentes" style="shape=ext;margin=3;double=1;whiteSpace=wrap;html=1;align=center;" parent="1" vertex="1">
          <mxGeometry x="1117.5" y="1020.2499999999998" width="100" height="60" as="geometry" />
        </mxCell>
        <mxCell id="0EHpkeUix3jVTKtLxYQo-13" style="edgeStyle=none;rounded=0;orthogonalLoop=1;jettySize=auto;html=1;exitX=0.5;exitY=0;exitDx=0;exitDy=0;endArrow=none;endFill=0;entryX=0.75;entryY=1;entryDx=0;entryDy=0;" parent="1" source="0EHpkeUix3jVTKtLxYQo-14" edge="1">
          <mxGeometry relative="1" as="geometry">
            <mxPoint x="918.0900000000001" y="766.9799999999998" as="targetPoint" />
          </mxGeometry>
        </mxCell>
        <mxCell id="0EHpkeUix3jVTKtLxYQo-14" value="" style="ellipse;whiteSpace=wrap;html=1;aspect=fixed;fillColor=#FFFFFF;strokeColor=#000000;fontColor=#000000;" parent="1" vertex="1">
          <mxGeometry x="912.5900000000001" y="777.4799999999998" width="11" height="11" as="geometry" />
        </mxCell>
        <mxCell id="0EHpkeUix3jVTKtLxYQo-15" value="cargo" style="text;html=1;strokeColor=none;fillColor=none;align=left;verticalAlign=middle;whiteSpace=wrap;rounded=0;fontSize=9;" parent="1" vertex="1">
          <mxGeometry x="909.3400000000001" y="790.6000000000001" width="22.74" height="8.75" as="geometry" />
        </mxCell>
        <mxCell id="0EHpkeUix3jVTKtLxYQo-16" style="edgeStyle=none;rounded=0;orthogonalLoop=1;jettySize=auto;html=1;exitX=0.5;exitY=0;exitDx=0;exitDy=0;endArrow=none;endFill=0;entryX=0.75;entryY=1;entryDx=0;entryDy=0;" parent="1" source="0EHpkeUix3jVTKtLxYQo-17" edge="1">
          <mxGeometry relative="1" as="geometry">
            <mxPoint x="735.0600000000002" y="764.4799999999998" as="targetPoint" />
          </mxGeometry>
        </mxCell>
        <mxCell id="0EHpkeUix3jVTKtLxYQo-17" value="" style="ellipse;whiteSpace=wrap;html=1;aspect=fixed;fillColor=#FFFFFF;strokeColor=#000000;fontColor=#000000;" parent="1" vertex="1">
          <mxGeometry x="729.56" y="774.9799999999998" width="11" height="11" as="geometry" />
        </mxCell>
        <mxCell id="0EHpkeUix3jVTKtLxYQo-18" value="cargo" style="text;html=1;strokeColor=none;fillColor=none;align=left;verticalAlign=middle;whiteSpace=wrap;rounded=0;fontSize=9;" parent="1" vertex="1">
          <mxGeometry x="726.31" y="789.1000000000001" width="22.74" height="8.75" as="geometry" />
        </mxCell>
        <mxCell id="0EHpkeUix3jVTKtLxYQo-20" style="edgeStyle=none;rounded=0;orthogonalLoop=1;jettySize=auto;html=1;exitX=0.5;exitY=0;exitDx=0;exitDy=0;endArrow=none;endFill=0;entryX=0.75;entryY=1;entryDx=0;entryDy=0;" parent="1" source="0EHpkeUix3jVTKtLxYQo-21" edge="1">
          <mxGeometry relative="1" as="geometry">
            <mxPoint x="1147.89" y="1081.26" as="targetPoint" />
          </mxGeometry>
        </mxCell>
        <mxCell id="0EHpkeUix3jVTKtLxYQo-21" value="" style="ellipse;whiteSpace=wrap;html=1;aspect=fixed;fillColor=#FFFFFF;strokeColor=#000000;fontColor=#000000;" parent="1" vertex="1">
          <mxGeometry x="1142.39" y="1091.7599999999998" width="11" height="11" as="geometry" />
        </mxCell>
        <mxCell id="0EHpkeUix3jVTKtLxYQo-22" value="cargo" style="text;html=1;strokeColor=none;fillColor=none;align=left;verticalAlign=middle;whiteSpace=wrap;rounded=0;fontSize=9;" parent="1" vertex="1">
          <mxGeometry x="1139.14" y="1104.88" width="22.74" height="8.75" as="geometry" />
        </mxCell>
        <mxCell id="0EHpkeUix3jVTKtLxYQo-23" value="" style="endArrow=none;html=1;rounded=0;entryX=0.5;entryY=0;entryDx=0;entryDy=0;exitX=0.797;exitY=0.998;exitDx=0;exitDy=0;exitPerimeter=0;" parent="1" edge="1">
          <mxGeometry width="50" height="50" relative="1" as="geometry">
            <mxPoint x="1178.96" y="1079.9500000000003" as="sourcePoint" />
            <mxPoint x="1179.17" y="1090.69" as="targetPoint" />
          </mxGeometry>
        </mxCell>
        <mxCell id="0EHpkeUix3jVTKtLxYQo-24" value="" style="ellipse;whiteSpace=wrap;html=1;aspect=fixed;fillColor=#CCCCCC;strokeColor=#000000;fontColor=#000000;" parent="1" vertex="1">
          <mxGeometry x="1173.67" y="1090.69" width="11" height="11" as="geometry" />
        </mxCell>
        <mxCell id="0EHpkeUix3jVTKtLxYQo-25" value="idUsu" style="text;html=1;strokeColor=none;fillColor=none;align=left;verticalAlign=middle;whiteSpace=wrap;rounded=0;fontSize=9;" parent="1" vertex="1">
          <mxGeometry x="1167.88" y="1103.69" width="30.25" height="12.5" as="geometry" />
        </mxCell>
        <mxCell id="0EHpkeUix3jVTKtLxYQo-26" value="" style="endArrow=none;html=1;rounded=0;entryX=0.5;entryY=0;entryDx=0;entryDy=0;exitX=0.797;exitY=0.998;exitDx=0;exitDy=0;exitPerimeter=0;" parent="1" edge="1">
          <mxGeometry width="50" height="50" relative="1" as="geometry">
            <mxPoint x="1205.67" y="1079.83" as="sourcePoint" />
            <mxPoint x="1205.88" y="1090.5699999999997" as="targetPoint" />
          </mxGeometry>
        </mxCell>
        <mxCell id="0EHpkeUix3jVTKtLxYQo-27" value="" style="ellipse;whiteSpace=wrap;html=1;aspect=fixed;fillColor=#CCCCCC;strokeColor=#000000;fontColor=#000000;" parent="1" vertex="1">
          <mxGeometry x="1200.38" y="1090.5699999999997" width="11" height="11" as="geometry" />
        </mxCell>
        <mxCell id="0EHpkeUix3jVTKtLxYQo-28" value="idReunión" style="text;html=1;strokeColor=none;fillColor=none;align=left;verticalAlign=middle;whiteSpace=wrap;rounded=0;fontSize=9;" parent="1" vertex="1">
          <mxGeometry x="1198.13" y="1103.69" width="30.25" height="12.5" as="geometry" />
        </mxCell>
        <mxCell id="0EHpkeUix3jVTKtLxYQo-29" value="fechaInicio" style="text;html=1;strokeColor=none;fillColor=none;align=left;verticalAlign=middle;whiteSpace=wrap;rounded=0;fontSize=9;" parent="1" vertex="1">
          <mxGeometry x="99.99999999999984" y="1131.3799999999999" width="65" height="12.5" as="geometry" />
        </mxCell>
        <mxCell id="0EHpkeUix3jVTKtLxYQo-30" value="" style="ellipse;whiteSpace=wrap;html=1;aspect=fixed;fillColor=#FFFFFF;strokeColor=#000000;fontColor=#000000;" parent="1" vertex="1">
          <mxGeometry x="86.9999999999999" y="1131.88" width="11" height="11" as="geometry" />
        </mxCell>
        <mxCell id="0EHpkeUix3jVTKtLxYQo-31" value="" style="ellipse;whiteSpace=wrap;html=1;aspect=fixed;fillColor=#FFFFFF;strokeColor=#000000;fontColor=#000000;" parent="1" vertex="1">
          <mxGeometry x="138.3" y="1086" width="11" height="11" as="geometry" />
        </mxCell>
        <mxCell id="0EHpkeUix3jVTKtLxYQo-32" value="fechaFin" style="text;html=1;strokeColor=none;fillColor=none;align=left;verticalAlign=middle;whiteSpace=wrap;rounded=0;fontSize=9;" parent="1" vertex="1">
          <mxGeometry x="116.9399999999999" y="1116.7499999999998" width="45.06" height="12.5" as="geometry" />
        </mxCell>
        <mxCell id="0EHpkeUix3jVTKtLxYQo-33" value="" style="endArrow=none;html=1;rounded=0;exitX=0.5;exitY=0;exitDx=0;exitDy=0;entryX=0.25;entryY=1;entryDx=0;entryDy=0;" parent="1" source="0EHpkeUix3jVTKtLxYQo-30" target="MmX11wm5HvuTR1FrTXqp-547" edge="1">
          <mxGeometry width="50" height="50" relative="1" as="geometry">
            <mxPoint x="90.49999999999989" y="1086.88" as="sourcePoint" />
            <mxPoint x="87.9905" y="1072.43608" as="targetPoint" />
          </mxGeometry>
        </mxCell>
        <mxCell id="0EHpkeUix3jVTKtLxYQo-34" value="" style="endArrow=none;html=1;rounded=0;entryX=0.81;entryY=0.999;entryDx=0;entryDy=0;exitX=0.5;exitY=0;exitDx=0;exitDy=0;entryPerimeter=0;" parent="1" source="0EHpkeUix3jVTKtLxYQo-31" edge="1">
          <mxGeometry width="50" height="50" relative="1" as="geometry">
            <mxPoint x="226.19000000000005" y="1129.87" as="sourcePoint" />
            <mxPoint x="143.735" y="1072.93826" as="targetPoint" />
          </mxGeometry>
        </mxCell>
        <mxCell id="4DlMVcPhKt1gNQq_mQ72-1" value="gestiona" style="text;html=1;strokeColor=none;fillColor=none;align=left;verticalAlign=middle;whiteSpace=wrap;rounded=0;fontSize=9;" parent="1" vertex="1">
          <mxGeometry x="1076.5" y="363.44" width="55" height="12.5" as="geometry" />
        </mxCell>
        <mxCell id="4DlMVcPhKt1gNQq_mQ72-2" value="(1,1)" style="text;html=1;strokeColor=none;fillColor=none;align=left;verticalAlign=middle;whiteSpace=wrap;rounded=0;fontSize=9;" parent="1" vertex="1">
          <mxGeometry x="1085.37" y="381" width="25.5" height="12.5" as="geometry" />
        </mxCell>
        <mxCell id="4DlMVcPhKt1gNQq_mQ72-3" value="gestiona" style="text;html=1;strokeColor=none;fillColor=none;align=left;verticalAlign=middle;whiteSpace=wrap;rounded=0;fontSize=9;" parent="1" vertex="1">
          <mxGeometry x="729.56" y="639.25" width="55" height="12.5" as="geometry" />
        </mxCell>
        <mxCell id="4DlMVcPhKt1gNQq_mQ72-4" value="(1,1)" style="text;html=1;strokeColor=none;fillColor=none;align=left;verticalAlign=middle;whiteSpace=wrap;rounded=0;fontSize=9;" parent="1" vertex="1">
          <mxGeometry x="778.0099999999999" y="639.25" width="25.5" height="12.5" as="geometry" />
        </mxCell>
        <mxCell id="4DlMVcPhKt1gNQq_mQ72-5" value="gestiona" style="text;html=1;strokeColor=none;fillColor=none;align=left;verticalAlign=middle;whiteSpace=wrap;rounded=0;fontSize=9;" parent="1" vertex="1">
          <mxGeometry x="452.50999999999993" y="1004.27" width="55" height="12.5" as="geometry" />
        </mxCell>
        <mxCell id="4DlMVcPhKt1gNQq_mQ72-6" value="(1,1)" style="text;html=1;strokeColor=none;fillColor=none;align=left;verticalAlign=middle;whiteSpace=wrap;rounded=0;fontSize=9;" parent="1" vertex="1">
          <mxGeometry x="492.3799999999999" y="1005.13" width="25.5" height="12.5" as="geometry" />
        </mxCell>
        <mxCell id="4DlMVcPhKt1gNQq_mQ72-7" value="gestiona" style="text;html=1;strokeColor=none;fillColor=none;align=left;verticalAlign=middle;whiteSpace=wrap;rounded=0;fontSize=9;" parent="1" vertex="1">
          <mxGeometry x="452.50999999999993" y="1021.15" width="55" height="12.5" as="geometry" />
        </mxCell>
        <mxCell id="4DlMVcPhKt1gNQq_mQ72-8" value="(1,1)" style="text;html=1;strokeColor=none;fillColor=none;align=left;verticalAlign=middle;whiteSpace=wrap;rounded=0;fontSize=9;" parent="1" vertex="1">
          <mxGeometry x="492.3799999999999" y="1021.01" width="25.5" height="12.5" as="geometry" />
        </mxCell>
        <mxCell id="4DlMVcPhKt1gNQq_mQ72-9" value="gestiona" style="text;html=1;strokeColor=none;fillColor=none;align=left;verticalAlign=middle;whiteSpace=wrap;rounded=0;fontSize=9;" parent="1" vertex="1">
          <mxGeometry x="453.05999999999995" y="1036.65" width="55" height="12.5" as="geometry" />
        </mxCell>
        <mxCell id="4DlMVcPhKt1gNQq_mQ72-10" value="(1,1)" style="text;html=1;strokeColor=none;fillColor=none;align=left;verticalAlign=middle;whiteSpace=wrap;rounded=0;fontSize=9;" parent="1" vertex="1">
          <mxGeometry x="492.9299999999999" y="1036.51" width="25.5" height="12.5" as="geometry" />
        </mxCell>
        <mxCell id="4DlMVcPhKt1gNQq_mQ72-12" value="gestiona" style="text;html=1;strokeColor=none;fillColor=none;align=left;verticalAlign=middle;whiteSpace=wrap;rounded=0;fontSize=9;" parent="1" vertex="1">
          <mxGeometry x="1070.63" y="1036.65" width="55" height="12.5" as="geometry" />
        </mxCell>
        <mxCell id="4DlMVcPhKt1gNQq_mQ72-13" value="(1,1)" style="text;html=1;strokeColor=none;fillColor=none;align=left;verticalAlign=middle;whiteSpace=wrap;rounded=0;fontSize=9;" parent="1" vertex="1">
          <mxGeometry x="1091.25" y="1052.01" width="25.5" height="12.5" as="geometry" />
        </mxCell>
        <mxCell id="4DlMVcPhKt1gNQq_mQ72-14" value="gestiona" style="text;html=1;strokeColor=none;fillColor=none;align=left;verticalAlign=middle;whiteSpace=wrap;rounded=0;fontSize=9;" parent="1" vertex="1">
          <mxGeometry x="1380" y="1034.51" width="55" height="12.5" as="geometry" />
        </mxCell>
        <mxCell id="4DlMVcPhKt1gNQq_mQ72-15" value="gestiona" style="text;html=1;strokeColor=none;fillColor=none;align=left;verticalAlign=middle;whiteSpace=wrap;rounded=0;fontSize=9;" parent="1" vertex="1">
          <mxGeometry x="1228.64" y="1034.51" width="55" height="12.5" as="geometry" />
        </mxCell>
        <mxCell id="4DlMVcPhKt1gNQq_mQ72-17" value="(1,1)" style="text;html=1;strokeColor=none;fillColor=none;align=left;verticalAlign=middle;whiteSpace=wrap;rounded=0;fontSize=9;" parent="1" vertex="1">
          <mxGeometry x="1228.64" y="1052.01" width="25.5" height="12.5" as="geometry" />
        </mxCell>
        <mxCell id="4DlMVcPhKt1gNQq_mQ72-18" value="(1,1)" style="text;html=1;strokeColor=none;fillColor=none;align=left;verticalAlign=middle;whiteSpace=wrap;rounded=0;fontSize=9;" parent="1" vertex="1">
          <mxGeometry x="1392.68" y="1052.01" width="25.5" height="12.5" as="geometry" />
        </mxCell>
      </root>
    </mxGraphModel>
  </diagram>
</mxfile>
